G75*
%MOIN*%
%OFA0B0*%
%FSLAX24Y24*%
%IPPOS*%
%LPD*%
%AMOC8*
5,1,8,0,0,1.08239X$1,22.5*
%
%ADD10C,0.0000*%
%ADD11R,0.0630X0.0710*%
%ADD12R,0.1535X0.0630*%
%ADD13R,0.3543X0.1575*%
D10*
X001220Y001220D02*
X001220Y020905D01*
X020905Y020905D01*
X020905Y001220D01*
X001220Y001220D01*
X006984Y002720D02*
X006986Y002750D01*
X006992Y002780D01*
X007001Y002809D01*
X007014Y002836D01*
X007031Y002861D01*
X007050Y002884D01*
X007073Y002905D01*
X007098Y002922D01*
X007124Y002936D01*
X007153Y002946D01*
X007182Y002953D01*
X007212Y002956D01*
X007243Y002955D01*
X007273Y002950D01*
X007302Y002941D01*
X007329Y002929D01*
X007355Y002914D01*
X007379Y002895D01*
X007400Y002873D01*
X007418Y002849D01*
X007433Y002822D01*
X007444Y002794D01*
X007452Y002765D01*
X007456Y002735D01*
X007456Y002705D01*
X007452Y002675D01*
X007444Y002646D01*
X007433Y002618D01*
X007418Y002591D01*
X007400Y002567D01*
X007379Y002545D01*
X007355Y002526D01*
X007329Y002511D01*
X007302Y002499D01*
X007273Y002490D01*
X007243Y002485D01*
X007212Y002484D01*
X007182Y002487D01*
X007153Y002494D01*
X007124Y002504D01*
X007098Y002518D01*
X007073Y002535D01*
X007050Y002556D01*
X007031Y002579D01*
X007014Y002604D01*
X007001Y002631D01*
X006992Y002660D01*
X006986Y002690D01*
X006984Y002720D01*
X005655Y007158D02*
X005657Y007193D01*
X005663Y007228D01*
X005673Y007262D01*
X005686Y007295D01*
X005703Y007326D01*
X005724Y007354D01*
X005747Y007381D01*
X005774Y007404D01*
X005802Y007425D01*
X005833Y007442D01*
X005866Y007455D01*
X005900Y007465D01*
X005935Y007471D01*
X005970Y007473D01*
X006005Y007471D01*
X006040Y007465D01*
X006074Y007455D01*
X006107Y007442D01*
X006138Y007425D01*
X006166Y007404D01*
X006193Y007381D01*
X006216Y007354D01*
X006237Y007326D01*
X006254Y007295D01*
X006267Y007262D01*
X006277Y007228D01*
X006283Y007193D01*
X006285Y007158D01*
X006283Y007123D01*
X006277Y007088D01*
X006267Y007054D01*
X006254Y007021D01*
X006237Y006990D01*
X006216Y006962D01*
X006193Y006935D01*
X006166Y006912D01*
X006138Y006891D01*
X006107Y006874D01*
X006074Y006861D01*
X006040Y006851D01*
X006005Y006845D01*
X005970Y006843D01*
X005935Y006845D01*
X005900Y006851D01*
X005866Y006861D01*
X005833Y006874D01*
X005802Y006891D01*
X005774Y006912D01*
X005747Y006935D01*
X005724Y006962D01*
X005703Y006990D01*
X005686Y007021D01*
X005673Y007054D01*
X005663Y007088D01*
X005657Y007123D01*
X005655Y007158D01*
X012984Y002720D02*
X012986Y002750D01*
X012992Y002780D01*
X013001Y002809D01*
X013014Y002836D01*
X013031Y002861D01*
X013050Y002884D01*
X013073Y002905D01*
X013098Y002922D01*
X013124Y002936D01*
X013153Y002946D01*
X013182Y002953D01*
X013212Y002956D01*
X013243Y002955D01*
X013273Y002950D01*
X013302Y002941D01*
X013329Y002929D01*
X013355Y002914D01*
X013379Y002895D01*
X013400Y002873D01*
X013418Y002849D01*
X013433Y002822D01*
X013444Y002794D01*
X013452Y002765D01*
X013456Y002735D01*
X013456Y002705D01*
X013452Y002675D01*
X013444Y002646D01*
X013433Y002618D01*
X013418Y002591D01*
X013400Y002567D01*
X013379Y002545D01*
X013355Y002526D01*
X013329Y002511D01*
X013302Y002499D01*
X013273Y002490D01*
X013243Y002485D01*
X013212Y002484D01*
X013182Y002487D01*
X013153Y002494D01*
X013124Y002504D01*
X013098Y002518D01*
X013073Y002535D01*
X013050Y002556D01*
X013031Y002579D01*
X013014Y002604D01*
X013001Y002631D01*
X012992Y002660D01*
X012986Y002690D01*
X012984Y002720D01*
X019435Y002434D02*
X019437Y002469D01*
X019443Y002504D01*
X019453Y002538D01*
X019466Y002571D01*
X019483Y002602D01*
X019504Y002630D01*
X019527Y002657D01*
X019554Y002680D01*
X019582Y002701D01*
X019613Y002718D01*
X019646Y002731D01*
X019680Y002741D01*
X019715Y002747D01*
X019750Y002749D01*
X019785Y002747D01*
X019820Y002741D01*
X019854Y002731D01*
X019887Y002718D01*
X019918Y002701D01*
X019946Y002680D01*
X019973Y002657D01*
X019996Y002630D01*
X020017Y002602D01*
X020034Y002571D01*
X020047Y002538D01*
X020057Y002504D01*
X020063Y002469D01*
X020065Y002434D01*
X020063Y002399D01*
X020057Y002364D01*
X020047Y002330D01*
X020034Y002297D01*
X020017Y002266D01*
X019996Y002238D01*
X019973Y002211D01*
X019946Y002188D01*
X019918Y002167D01*
X019887Y002150D01*
X019854Y002137D01*
X019820Y002127D01*
X019785Y002121D01*
X019750Y002119D01*
X019715Y002121D01*
X019680Y002127D01*
X019646Y002137D01*
X019613Y002150D01*
X019582Y002167D01*
X019554Y002188D01*
X019527Y002211D01*
X019504Y002238D01*
X019483Y002266D01*
X019466Y002297D01*
X019453Y002330D01*
X019443Y002364D01*
X019437Y002399D01*
X019435Y002434D01*
X004635Y013720D02*
X004637Y013757D01*
X004643Y013794D01*
X004652Y013830D01*
X004666Y013864D01*
X004683Y013897D01*
X004703Y013929D01*
X004726Y013958D01*
X004752Y013984D01*
X004781Y014007D01*
X004812Y014027D01*
X004846Y014044D01*
X004880Y014058D01*
X004916Y014067D01*
X004953Y014073D01*
X004990Y014075D01*
X005027Y014073D01*
X005064Y014067D01*
X005100Y014058D01*
X005134Y014044D01*
X005167Y014027D01*
X005199Y014007D01*
X005228Y013984D01*
X005254Y013958D01*
X005277Y013929D01*
X005297Y013898D01*
X005314Y013864D01*
X005328Y013830D01*
X005337Y013794D01*
X005343Y013757D01*
X005345Y013720D01*
X005343Y013683D01*
X005337Y013646D01*
X005328Y013610D01*
X005314Y013576D01*
X005297Y013543D01*
X005277Y013511D01*
X005254Y013482D01*
X005228Y013456D01*
X005199Y013433D01*
X005168Y013413D01*
X005134Y013396D01*
X005100Y013382D01*
X005064Y013373D01*
X005027Y013367D01*
X004990Y013365D01*
X004953Y013367D01*
X004916Y013373D01*
X004880Y013382D01*
X004846Y013396D01*
X004813Y013413D01*
X004781Y013433D01*
X004752Y013456D01*
X004726Y013482D01*
X004703Y013511D01*
X004683Y013542D01*
X004666Y013576D01*
X004652Y013610D01*
X004643Y013646D01*
X004637Y013683D01*
X004635Y013720D01*
X005655Y015032D02*
X005657Y015067D01*
X005663Y015102D01*
X005673Y015136D01*
X005686Y015169D01*
X005703Y015200D01*
X005724Y015228D01*
X005747Y015255D01*
X005774Y015278D01*
X005802Y015299D01*
X005833Y015316D01*
X005866Y015329D01*
X005900Y015339D01*
X005935Y015345D01*
X005970Y015347D01*
X006005Y015345D01*
X006040Y015339D01*
X006074Y015329D01*
X006107Y015316D01*
X006138Y015299D01*
X006166Y015278D01*
X006193Y015255D01*
X006216Y015228D01*
X006237Y015200D01*
X006254Y015169D01*
X006267Y015136D01*
X006277Y015102D01*
X006283Y015067D01*
X006285Y015032D01*
X006283Y014997D01*
X006277Y014962D01*
X006267Y014928D01*
X006254Y014895D01*
X006237Y014864D01*
X006216Y014836D01*
X006193Y014809D01*
X006166Y014786D01*
X006138Y014765D01*
X006107Y014748D01*
X006074Y014735D01*
X006040Y014725D01*
X006005Y014719D01*
X005970Y014717D01*
X005935Y014719D01*
X005900Y014725D01*
X005866Y014735D01*
X005833Y014748D01*
X005802Y014765D01*
X005774Y014786D01*
X005747Y014809D01*
X005724Y014836D01*
X005703Y014864D01*
X005686Y014895D01*
X005673Y014928D01*
X005663Y014962D01*
X005657Y014997D01*
X005655Y015032D01*
X001095Y013720D02*
X001097Y013757D01*
X001103Y013794D01*
X001112Y013830D01*
X001126Y013864D01*
X001143Y013897D01*
X001163Y013929D01*
X001186Y013958D01*
X001212Y013984D01*
X001241Y014007D01*
X001272Y014027D01*
X001306Y014044D01*
X001340Y014058D01*
X001376Y014067D01*
X001413Y014073D01*
X001450Y014075D01*
X001487Y014073D01*
X001524Y014067D01*
X001560Y014058D01*
X001594Y014044D01*
X001627Y014027D01*
X001659Y014007D01*
X001688Y013984D01*
X001714Y013958D01*
X001737Y013929D01*
X001757Y013898D01*
X001774Y013864D01*
X001788Y013830D01*
X001797Y013794D01*
X001803Y013757D01*
X001805Y013720D01*
X001803Y013683D01*
X001797Y013646D01*
X001788Y013610D01*
X001774Y013576D01*
X001757Y013543D01*
X001737Y013511D01*
X001714Y013482D01*
X001688Y013456D01*
X001659Y013433D01*
X001628Y013413D01*
X001594Y013396D01*
X001560Y013382D01*
X001524Y013373D01*
X001487Y013367D01*
X001450Y013365D01*
X001413Y013367D01*
X001376Y013373D01*
X001340Y013382D01*
X001306Y013396D01*
X001273Y013413D01*
X001241Y013433D01*
X001212Y013456D01*
X001186Y013482D01*
X001163Y013511D01*
X001143Y013542D01*
X001126Y013576D01*
X001112Y013610D01*
X001103Y013646D01*
X001097Y013683D01*
X001095Y013720D01*
X006984Y020720D02*
X006986Y020750D01*
X006992Y020780D01*
X007001Y020809D01*
X007014Y020836D01*
X007031Y020861D01*
X007050Y020884D01*
X007073Y020905D01*
X007098Y020922D01*
X007124Y020936D01*
X007153Y020946D01*
X007182Y020953D01*
X007212Y020956D01*
X007243Y020955D01*
X007273Y020950D01*
X007302Y020941D01*
X007329Y020929D01*
X007355Y020914D01*
X007379Y020895D01*
X007400Y020873D01*
X007418Y020849D01*
X007433Y020822D01*
X007444Y020794D01*
X007452Y020765D01*
X007456Y020735D01*
X007456Y020705D01*
X007452Y020675D01*
X007444Y020646D01*
X007433Y020618D01*
X007418Y020591D01*
X007400Y020567D01*
X007379Y020545D01*
X007355Y020526D01*
X007329Y020511D01*
X007302Y020499D01*
X007273Y020490D01*
X007243Y020485D01*
X007212Y020484D01*
X007182Y020487D01*
X007153Y020494D01*
X007124Y020504D01*
X007098Y020518D01*
X007073Y020535D01*
X007050Y020556D01*
X007031Y020579D01*
X007014Y020604D01*
X007001Y020631D01*
X006992Y020660D01*
X006986Y020690D01*
X006984Y020720D01*
X012984Y020720D02*
X012986Y020750D01*
X012992Y020780D01*
X013001Y020809D01*
X013014Y020836D01*
X013031Y020861D01*
X013050Y020884D01*
X013073Y020905D01*
X013098Y020922D01*
X013124Y020936D01*
X013153Y020946D01*
X013182Y020953D01*
X013212Y020956D01*
X013243Y020955D01*
X013273Y020950D01*
X013302Y020941D01*
X013329Y020929D01*
X013355Y020914D01*
X013379Y020895D01*
X013400Y020873D01*
X013418Y020849D01*
X013433Y020822D01*
X013444Y020794D01*
X013452Y020765D01*
X013456Y020735D01*
X013456Y020705D01*
X013452Y020675D01*
X013444Y020646D01*
X013433Y020618D01*
X013418Y020591D01*
X013400Y020567D01*
X013379Y020545D01*
X013355Y020526D01*
X013329Y020511D01*
X013302Y020499D01*
X013273Y020490D01*
X013243Y020485D01*
X013212Y020484D01*
X013182Y020487D01*
X013153Y020494D01*
X013124Y020504D01*
X013098Y020518D01*
X013073Y020535D01*
X013050Y020556D01*
X013031Y020579D01*
X013014Y020604D01*
X013001Y020631D01*
X012992Y020660D01*
X012986Y020690D01*
X012984Y020720D01*
X019435Y019756D02*
X019437Y019791D01*
X019443Y019826D01*
X019453Y019860D01*
X019466Y019893D01*
X019483Y019924D01*
X019504Y019952D01*
X019527Y019979D01*
X019554Y020002D01*
X019582Y020023D01*
X019613Y020040D01*
X019646Y020053D01*
X019680Y020063D01*
X019715Y020069D01*
X019750Y020071D01*
X019785Y020069D01*
X019820Y020063D01*
X019854Y020053D01*
X019887Y020040D01*
X019918Y020023D01*
X019946Y020002D01*
X019973Y019979D01*
X019996Y019952D01*
X020017Y019924D01*
X020034Y019893D01*
X020047Y019860D01*
X020057Y019826D01*
X020063Y019791D01*
X020065Y019756D01*
X020063Y019721D01*
X020057Y019686D01*
X020047Y019652D01*
X020034Y019619D01*
X020017Y019588D01*
X019996Y019560D01*
X019973Y019533D01*
X019946Y019510D01*
X019918Y019489D01*
X019887Y019472D01*
X019854Y019459D01*
X019820Y019449D01*
X019785Y019443D01*
X019750Y019441D01*
X019715Y019443D01*
X019680Y019449D01*
X019646Y019459D01*
X019613Y019472D01*
X019582Y019489D01*
X019554Y019510D01*
X019527Y019533D01*
X019504Y019560D01*
X019483Y019588D01*
X019466Y019619D01*
X019453Y019652D01*
X019443Y019686D01*
X019437Y019721D01*
X019435Y019756D01*
D11*
X005780Y004720D03*
X005780Y003720D03*
X004660Y003720D03*
X004660Y004720D03*
D12*
X015047Y003720D03*
X018393Y003720D03*
D13*
X017220Y006779D03*
X017220Y013653D03*
M02*
