G75*
%MOIN*%
%OFA0B0*%
%FSLAX24Y24*%
%IPPOS*%
%LPD*%
%AMOC8*
5,1,8,0,0,1.08239X$1,22.5*
%
%ADD10C,0.0000*%
%ADD11C,0.0050*%
%ADD12C,0.0010*%
%ADD13C,0.0080*%
%ADD14R,0.0660X0.0380*%
%ADD15C,0.0040*%
%ADD16R,0.0492X0.2441*%
%ADD17C,0.0030*%
%ADD18C,0.0060*%
%ADD19C,0.0020*%
%ADD20R,0.0200X0.0850*%
D10*
X001220Y001220D02*
X001220Y020905D01*
X020905Y020905D01*
X020905Y001220D01*
X001220Y001220D01*
X006984Y002720D02*
X006986Y002750D01*
X006992Y002780D01*
X007001Y002809D01*
X007014Y002836D01*
X007031Y002861D01*
X007050Y002884D01*
X007073Y002905D01*
X007098Y002922D01*
X007124Y002936D01*
X007153Y002946D01*
X007182Y002953D01*
X007212Y002956D01*
X007243Y002955D01*
X007273Y002950D01*
X007302Y002941D01*
X007329Y002929D01*
X007355Y002914D01*
X007379Y002895D01*
X007400Y002873D01*
X007418Y002849D01*
X007433Y002822D01*
X007444Y002794D01*
X007452Y002765D01*
X007456Y002735D01*
X007456Y002705D01*
X007452Y002675D01*
X007444Y002646D01*
X007433Y002618D01*
X007418Y002591D01*
X007400Y002567D01*
X007379Y002545D01*
X007355Y002526D01*
X007329Y002511D01*
X007302Y002499D01*
X007273Y002490D01*
X007243Y002485D01*
X007212Y002484D01*
X007182Y002487D01*
X007153Y002494D01*
X007124Y002504D01*
X007098Y002518D01*
X007073Y002535D01*
X007050Y002556D01*
X007031Y002579D01*
X007014Y002604D01*
X007001Y002631D01*
X006992Y002660D01*
X006986Y002690D01*
X006984Y002720D01*
X005655Y007158D02*
X005657Y007193D01*
X005663Y007228D01*
X005673Y007262D01*
X005686Y007295D01*
X005703Y007326D01*
X005724Y007354D01*
X005747Y007381D01*
X005774Y007404D01*
X005802Y007425D01*
X005833Y007442D01*
X005866Y007455D01*
X005900Y007465D01*
X005935Y007471D01*
X005970Y007473D01*
X006005Y007471D01*
X006040Y007465D01*
X006074Y007455D01*
X006107Y007442D01*
X006138Y007425D01*
X006166Y007404D01*
X006193Y007381D01*
X006216Y007354D01*
X006237Y007326D01*
X006254Y007295D01*
X006267Y007262D01*
X006277Y007228D01*
X006283Y007193D01*
X006285Y007158D01*
X006283Y007123D01*
X006277Y007088D01*
X006267Y007054D01*
X006254Y007021D01*
X006237Y006990D01*
X006216Y006962D01*
X006193Y006935D01*
X006166Y006912D01*
X006138Y006891D01*
X006107Y006874D01*
X006074Y006861D01*
X006040Y006851D01*
X006005Y006845D01*
X005970Y006843D01*
X005935Y006845D01*
X005900Y006851D01*
X005866Y006861D01*
X005833Y006874D01*
X005802Y006891D01*
X005774Y006912D01*
X005747Y006935D01*
X005724Y006962D01*
X005703Y006990D01*
X005686Y007021D01*
X005673Y007054D01*
X005663Y007088D01*
X005657Y007123D01*
X005655Y007158D01*
X012984Y002720D02*
X012986Y002750D01*
X012992Y002780D01*
X013001Y002809D01*
X013014Y002836D01*
X013031Y002861D01*
X013050Y002884D01*
X013073Y002905D01*
X013098Y002922D01*
X013124Y002936D01*
X013153Y002946D01*
X013182Y002953D01*
X013212Y002956D01*
X013243Y002955D01*
X013273Y002950D01*
X013302Y002941D01*
X013329Y002929D01*
X013355Y002914D01*
X013379Y002895D01*
X013400Y002873D01*
X013418Y002849D01*
X013433Y002822D01*
X013444Y002794D01*
X013452Y002765D01*
X013456Y002735D01*
X013456Y002705D01*
X013452Y002675D01*
X013444Y002646D01*
X013433Y002618D01*
X013418Y002591D01*
X013400Y002567D01*
X013379Y002545D01*
X013355Y002526D01*
X013329Y002511D01*
X013302Y002499D01*
X013273Y002490D01*
X013243Y002485D01*
X013212Y002484D01*
X013182Y002487D01*
X013153Y002494D01*
X013124Y002504D01*
X013098Y002518D01*
X013073Y002535D01*
X013050Y002556D01*
X013031Y002579D01*
X013014Y002604D01*
X013001Y002631D01*
X012992Y002660D01*
X012986Y002690D01*
X012984Y002720D01*
X019435Y002434D02*
X019437Y002469D01*
X019443Y002504D01*
X019453Y002538D01*
X019466Y002571D01*
X019483Y002602D01*
X019504Y002630D01*
X019527Y002657D01*
X019554Y002680D01*
X019582Y002701D01*
X019613Y002718D01*
X019646Y002731D01*
X019680Y002741D01*
X019715Y002747D01*
X019750Y002749D01*
X019785Y002747D01*
X019820Y002741D01*
X019854Y002731D01*
X019887Y002718D01*
X019918Y002701D01*
X019946Y002680D01*
X019973Y002657D01*
X019996Y002630D01*
X020017Y002602D01*
X020034Y002571D01*
X020047Y002538D01*
X020057Y002504D01*
X020063Y002469D01*
X020065Y002434D01*
X020063Y002399D01*
X020057Y002364D01*
X020047Y002330D01*
X020034Y002297D01*
X020017Y002266D01*
X019996Y002238D01*
X019973Y002211D01*
X019946Y002188D01*
X019918Y002167D01*
X019887Y002150D01*
X019854Y002137D01*
X019820Y002127D01*
X019785Y002121D01*
X019750Y002119D01*
X019715Y002121D01*
X019680Y002127D01*
X019646Y002137D01*
X019613Y002150D01*
X019582Y002167D01*
X019554Y002188D01*
X019527Y002211D01*
X019504Y002238D01*
X019483Y002266D01*
X019466Y002297D01*
X019453Y002330D01*
X019443Y002364D01*
X019437Y002399D01*
X019435Y002434D01*
X004635Y013720D02*
X004637Y013757D01*
X004643Y013794D01*
X004652Y013830D01*
X004666Y013864D01*
X004683Y013897D01*
X004703Y013929D01*
X004726Y013958D01*
X004752Y013984D01*
X004781Y014007D01*
X004812Y014027D01*
X004846Y014044D01*
X004880Y014058D01*
X004916Y014067D01*
X004953Y014073D01*
X004990Y014075D01*
X005027Y014073D01*
X005064Y014067D01*
X005100Y014058D01*
X005134Y014044D01*
X005167Y014027D01*
X005199Y014007D01*
X005228Y013984D01*
X005254Y013958D01*
X005277Y013929D01*
X005297Y013898D01*
X005314Y013864D01*
X005328Y013830D01*
X005337Y013794D01*
X005343Y013757D01*
X005345Y013720D01*
X005343Y013683D01*
X005337Y013646D01*
X005328Y013610D01*
X005314Y013576D01*
X005297Y013543D01*
X005277Y013511D01*
X005254Y013482D01*
X005228Y013456D01*
X005199Y013433D01*
X005168Y013413D01*
X005134Y013396D01*
X005100Y013382D01*
X005064Y013373D01*
X005027Y013367D01*
X004990Y013365D01*
X004953Y013367D01*
X004916Y013373D01*
X004880Y013382D01*
X004846Y013396D01*
X004813Y013413D01*
X004781Y013433D01*
X004752Y013456D01*
X004726Y013482D01*
X004703Y013511D01*
X004683Y013542D01*
X004666Y013576D01*
X004652Y013610D01*
X004643Y013646D01*
X004637Y013683D01*
X004635Y013720D01*
X005655Y015032D02*
X005657Y015067D01*
X005663Y015102D01*
X005673Y015136D01*
X005686Y015169D01*
X005703Y015200D01*
X005724Y015228D01*
X005747Y015255D01*
X005774Y015278D01*
X005802Y015299D01*
X005833Y015316D01*
X005866Y015329D01*
X005900Y015339D01*
X005935Y015345D01*
X005970Y015347D01*
X006005Y015345D01*
X006040Y015339D01*
X006074Y015329D01*
X006107Y015316D01*
X006138Y015299D01*
X006166Y015278D01*
X006193Y015255D01*
X006216Y015228D01*
X006237Y015200D01*
X006254Y015169D01*
X006267Y015136D01*
X006277Y015102D01*
X006283Y015067D01*
X006285Y015032D01*
X006283Y014997D01*
X006277Y014962D01*
X006267Y014928D01*
X006254Y014895D01*
X006237Y014864D01*
X006216Y014836D01*
X006193Y014809D01*
X006166Y014786D01*
X006138Y014765D01*
X006107Y014748D01*
X006074Y014735D01*
X006040Y014725D01*
X006005Y014719D01*
X005970Y014717D01*
X005935Y014719D01*
X005900Y014725D01*
X005866Y014735D01*
X005833Y014748D01*
X005802Y014765D01*
X005774Y014786D01*
X005747Y014809D01*
X005724Y014836D01*
X005703Y014864D01*
X005686Y014895D01*
X005673Y014928D01*
X005663Y014962D01*
X005657Y014997D01*
X005655Y015032D01*
X001095Y013720D02*
X001097Y013757D01*
X001103Y013794D01*
X001112Y013830D01*
X001126Y013864D01*
X001143Y013897D01*
X001163Y013929D01*
X001186Y013958D01*
X001212Y013984D01*
X001241Y014007D01*
X001272Y014027D01*
X001306Y014044D01*
X001340Y014058D01*
X001376Y014067D01*
X001413Y014073D01*
X001450Y014075D01*
X001487Y014073D01*
X001524Y014067D01*
X001560Y014058D01*
X001594Y014044D01*
X001627Y014027D01*
X001659Y014007D01*
X001688Y013984D01*
X001714Y013958D01*
X001737Y013929D01*
X001757Y013898D01*
X001774Y013864D01*
X001788Y013830D01*
X001797Y013794D01*
X001803Y013757D01*
X001805Y013720D01*
X001803Y013683D01*
X001797Y013646D01*
X001788Y013610D01*
X001774Y013576D01*
X001757Y013543D01*
X001737Y013511D01*
X001714Y013482D01*
X001688Y013456D01*
X001659Y013433D01*
X001628Y013413D01*
X001594Y013396D01*
X001560Y013382D01*
X001524Y013373D01*
X001487Y013367D01*
X001450Y013365D01*
X001413Y013367D01*
X001376Y013373D01*
X001340Y013382D01*
X001306Y013396D01*
X001273Y013413D01*
X001241Y013433D01*
X001212Y013456D01*
X001186Y013482D01*
X001163Y013511D01*
X001143Y013542D01*
X001126Y013576D01*
X001112Y013610D01*
X001103Y013646D01*
X001097Y013683D01*
X001095Y013720D01*
X006984Y020720D02*
X006986Y020750D01*
X006992Y020780D01*
X007001Y020809D01*
X007014Y020836D01*
X007031Y020861D01*
X007050Y020884D01*
X007073Y020905D01*
X007098Y020922D01*
X007124Y020936D01*
X007153Y020946D01*
X007182Y020953D01*
X007212Y020956D01*
X007243Y020955D01*
X007273Y020950D01*
X007302Y020941D01*
X007329Y020929D01*
X007355Y020914D01*
X007379Y020895D01*
X007400Y020873D01*
X007418Y020849D01*
X007433Y020822D01*
X007444Y020794D01*
X007452Y020765D01*
X007456Y020735D01*
X007456Y020705D01*
X007452Y020675D01*
X007444Y020646D01*
X007433Y020618D01*
X007418Y020591D01*
X007400Y020567D01*
X007379Y020545D01*
X007355Y020526D01*
X007329Y020511D01*
X007302Y020499D01*
X007273Y020490D01*
X007243Y020485D01*
X007212Y020484D01*
X007182Y020487D01*
X007153Y020494D01*
X007124Y020504D01*
X007098Y020518D01*
X007073Y020535D01*
X007050Y020556D01*
X007031Y020579D01*
X007014Y020604D01*
X007001Y020631D01*
X006992Y020660D01*
X006986Y020690D01*
X006984Y020720D01*
X012984Y020720D02*
X012986Y020750D01*
X012992Y020780D01*
X013001Y020809D01*
X013014Y020836D01*
X013031Y020861D01*
X013050Y020884D01*
X013073Y020905D01*
X013098Y020922D01*
X013124Y020936D01*
X013153Y020946D01*
X013182Y020953D01*
X013212Y020956D01*
X013243Y020955D01*
X013273Y020950D01*
X013302Y020941D01*
X013329Y020929D01*
X013355Y020914D01*
X013379Y020895D01*
X013400Y020873D01*
X013418Y020849D01*
X013433Y020822D01*
X013444Y020794D01*
X013452Y020765D01*
X013456Y020735D01*
X013456Y020705D01*
X013452Y020675D01*
X013444Y020646D01*
X013433Y020618D01*
X013418Y020591D01*
X013400Y020567D01*
X013379Y020545D01*
X013355Y020526D01*
X013329Y020511D01*
X013302Y020499D01*
X013273Y020490D01*
X013243Y020485D01*
X013212Y020484D01*
X013182Y020487D01*
X013153Y020494D01*
X013124Y020504D01*
X013098Y020518D01*
X013073Y020535D01*
X013050Y020556D01*
X013031Y020579D01*
X013014Y020604D01*
X013001Y020631D01*
X012992Y020660D01*
X012986Y020690D01*
X012984Y020720D01*
X019435Y019756D02*
X019437Y019791D01*
X019443Y019826D01*
X019453Y019860D01*
X019466Y019893D01*
X019483Y019924D01*
X019504Y019952D01*
X019527Y019979D01*
X019554Y020002D01*
X019582Y020023D01*
X019613Y020040D01*
X019646Y020053D01*
X019680Y020063D01*
X019715Y020069D01*
X019750Y020071D01*
X019785Y020069D01*
X019820Y020063D01*
X019854Y020053D01*
X019887Y020040D01*
X019918Y020023D01*
X019946Y020002D01*
X019973Y019979D01*
X019996Y019952D01*
X020017Y019924D01*
X020034Y019893D01*
X020047Y019860D01*
X020057Y019826D01*
X020063Y019791D01*
X020065Y019756D01*
X020063Y019721D01*
X020057Y019686D01*
X020047Y019652D01*
X020034Y019619D01*
X020017Y019588D01*
X019996Y019560D01*
X019973Y019533D01*
X019946Y019510D01*
X019918Y019489D01*
X019887Y019472D01*
X019854Y019459D01*
X019820Y019449D01*
X019785Y019443D01*
X019750Y019441D01*
X019715Y019443D01*
X019680Y019449D01*
X019646Y019459D01*
X019613Y019472D01*
X019582Y019489D01*
X019554Y019510D01*
X019527Y019533D01*
X019504Y019560D01*
X019483Y019588D01*
X019466Y019619D01*
X019453Y019652D01*
X019443Y019686D01*
X019437Y019721D01*
X019435Y019756D01*
D11*
X018175Y021331D02*
X022899Y021331D01*
X022899Y000859D01*
X018175Y000859D01*
X018175Y005583D01*
X004395Y005583D01*
X004395Y016607D01*
X018175Y016607D01*
X018175Y021331D01*
X005045Y015560D02*
X004970Y015635D01*
X004895Y015635D01*
X004820Y015560D01*
X004745Y015635D01*
X004670Y015635D01*
X004595Y015560D01*
X004595Y015410D01*
X004670Y015335D01*
X004820Y015485D02*
X004820Y015560D01*
X005045Y015560D02*
X005045Y015410D01*
X004970Y015335D01*
X001895Y015485D02*
X001445Y015485D01*
X001445Y015335D02*
X001445Y015635D01*
X001745Y015335D02*
X001895Y015485D01*
X001820Y012035D02*
X001895Y011960D01*
X001895Y011810D01*
X001820Y011735D01*
X001820Y012035D02*
X001745Y012035D01*
X001445Y011735D01*
X001445Y012035D01*
X001645Y009506D02*
X001795Y009356D01*
X001795Y009431D02*
X001795Y009205D01*
X001645Y009205D02*
X002095Y009205D01*
X002095Y009431D01*
X002020Y009506D01*
X001870Y009506D01*
X001795Y009431D01*
X001720Y009045D02*
X002020Y009045D01*
X002095Y008970D01*
X002095Y008745D01*
X001645Y008745D01*
X001645Y008970D01*
X001720Y009045D01*
X001645Y008585D02*
X001645Y008285D01*
X002095Y008285D01*
X002095Y008585D01*
X001870Y008435D02*
X001870Y008285D01*
X001645Y008124D02*
X001645Y007824D01*
X002095Y007824D01*
X002195Y007006D02*
X001895Y007006D01*
X001745Y006856D01*
X001895Y006705D01*
X002195Y006705D01*
X002120Y006545D02*
X002195Y006470D01*
X002195Y006245D01*
X001745Y006245D01*
X001745Y006470D01*
X001820Y006545D01*
X002120Y006545D01*
X002195Y006085D02*
X002195Y005785D01*
X001745Y005785D01*
X001745Y006085D01*
X001970Y005935D02*
X001970Y005785D01*
X001745Y005624D02*
X001745Y005324D01*
X002195Y005324D01*
X003950Y006900D02*
X004240Y006900D01*
X004100Y007050D02*
X004100Y006740D01*
X004100Y009240D02*
X004100Y009550D01*
X004240Y009400D02*
X003950Y009400D01*
X004820Y011685D02*
X004820Y011985D01*
X004595Y011910D02*
X005045Y011910D01*
X004820Y011685D01*
D12*
X003224Y007876D02*
X003224Y007966D01*
X003225Y007965D02*
X003277Y007967D01*
X003329Y007973D01*
X003381Y007982D01*
X003431Y007995D01*
X003481Y008011D01*
X003529Y008031D01*
X003576Y008054D01*
X003621Y008080D01*
X003665Y008110D01*
X003706Y008142D01*
X003745Y008177D01*
X003781Y008215D01*
X003814Y008255D01*
X003845Y008297D01*
X003873Y008341D01*
X003951Y008297D01*
X003951Y008296D01*
X003922Y008250D01*
X003890Y008205D01*
X003855Y008163D01*
X003818Y008123D01*
X003778Y008085D01*
X003735Y008050D01*
X003691Y008018D01*
X003644Y007989D01*
X003596Y007963D01*
X003546Y007940D01*
X003494Y007921D01*
X003442Y007905D01*
X003389Y007892D01*
X003334Y007883D01*
X003280Y007877D01*
X003225Y007875D01*
X003225Y007884D01*
X003279Y007886D01*
X003333Y007892D01*
X003387Y007901D01*
X003440Y007913D01*
X003492Y007929D01*
X003542Y007949D01*
X003592Y007971D01*
X003640Y007997D01*
X003686Y008026D01*
X003730Y008057D01*
X003772Y008092D01*
X003811Y008129D01*
X003848Y008169D01*
X003883Y008211D01*
X003915Y008255D01*
X003943Y008301D01*
X003936Y008305D01*
X003907Y008260D01*
X003876Y008216D01*
X003842Y008175D01*
X003805Y008135D01*
X003766Y008099D01*
X003724Y008065D01*
X003681Y008033D01*
X003635Y008005D01*
X003588Y007979D01*
X003539Y007957D01*
X003489Y007938D01*
X003437Y007922D01*
X003385Y007910D01*
X003332Y007901D01*
X003279Y007895D01*
X003225Y007893D01*
X003225Y007902D01*
X003282Y007904D01*
X003338Y007911D01*
X003394Y007921D01*
X003449Y007935D01*
X003502Y007952D01*
X003555Y007974D01*
X003606Y007999D01*
X003655Y008027D01*
X003702Y008059D01*
X003746Y008094D01*
X003788Y008132D01*
X003828Y008173D01*
X003864Y008216D01*
X003898Y008262D01*
X003928Y008310D01*
X003920Y008314D01*
X003890Y008267D01*
X003857Y008221D01*
X003821Y008179D01*
X003782Y008138D01*
X003741Y008101D01*
X003696Y008066D01*
X003650Y008035D01*
X003602Y008007D01*
X003551Y007982D01*
X003499Y007961D01*
X003446Y007943D01*
X003392Y007929D01*
X003337Y007919D01*
X003281Y007913D01*
X003225Y007911D01*
X003225Y007920D01*
X003280Y007922D01*
X003335Y007928D01*
X003390Y007938D01*
X003444Y007952D01*
X003496Y007969D01*
X003548Y007990D01*
X003597Y008015D01*
X003645Y008042D01*
X003691Y008073D01*
X003735Y008108D01*
X003776Y008145D01*
X003814Y008185D01*
X003850Y008227D01*
X003883Y008272D01*
X003912Y008319D01*
X003904Y008323D01*
X003875Y008277D01*
X003843Y008233D01*
X003808Y008191D01*
X003770Y008151D01*
X003729Y008114D01*
X003686Y008081D01*
X003640Y008050D01*
X003593Y008023D01*
X003544Y007998D01*
X003493Y007978D01*
X003441Y007961D01*
X003388Y007947D01*
X003334Y007937D01*
X003280Y007931D01*
X003225Y007929D01*
X003225Y007938D01*
X003279Y007940D01*
X003333Y007946D01*
X003386Y007956D01*
X003439Y007969D01*
X003490Y007986D01*
X003540Y008007D01*
X003589Y008030D01*
X003636Y008058D01*
X003681Y008088D01*
X003723Y008121D01*
X003763Y008158D01*
X003801Y008197D01*
X003836Y008238D01*
X003868Y008282D01*
X003896Y008328D01*
X003889Y008332D01*
X003860Y008287D01*
X003829Y008244D01*
X003794Y008203D01*
X003757Y008164D01*
X003717Y008128D01*
X003675Y008095D01*
X003631Y008065D01*
X003585Y008038D01*
X003537Y008015D01*
X003487Y007995D01*
X003436Y007978D01*
X003384Y007965D01*
X003332Y007955D01*
X003278Y007949D01*
X003225Y007947D01*
X003225Y007956D01*
X003278Y007958D01*
X003330Y007964D01*
X003382Y007973D01*
X003434Y007986D01*
X003484Y008003D01*
X003533Y008023D01*
X003580Y008046D01*
X003626Y008073D01*
X003670Y008103D01*
X003712Y008135D01*
X003751Y008171D01*
X003788Y008209D01*
X003822Y008249D01*
X003853Y008292D01*
X003881Y008337D01*
X003215Y009344D02*
X003215Y009294D01*
X003215Y009295D02*
X003170Y009293D01*
X003126Y009287D01*
X003082Y009278D01*
X003039Y009266D01*
X002997Y009250D01*
X002957Y009231D01*
X002918Y009209D01*
X002881Y009184D01*
X002846Y009157D01*
X002813Y009126D01*
X002783Y009093D01*
X002755Y009058D01*
X002715Y009087D01*
X002714Y009087D01*
X002744Y009126D01*
X002777Y009161D01*
X002813Y009194D01*
X002851Y009225D01*
X002892Y009252D01*
X002934Y009276D01*
X002978Y009296D01*
X003024Y009313D01*
X003070Y009327D01*
X003118Y009337D01*
X003166Y009343D01*
X003215Y009345D01*
X003215Y009336D01*
X003167Y009334D01*
X003120Y009328D01*
X003073Y009318D01*
X003026Y009305D01*
X002982Y009288D01*
X002938Y009268D01*
X002896Y009244D01*
X002857Y009217D01*
X002819Y009188D01*
X002784Y009155D01*
X002751Y009120D01*
X002722Y009082D01*
X002729Y009077D01*
X002758Y009114D01*
X002790Y009149D01*
X002825Y009181D01*
X002862Y009210D01*
X002901Y009236D01*
X002942Y009260D01*
X002985Y009280D01*
X003029Y009296D01*
X003075Y009309D01*
X003121Y009319D01*
X003168Y009325D01*
X003215Y009327D01*
X003215Y009318D01*
X003169Y009316D01*
X003122Y009310D01*
X003077Y009301D01*
X003032Y009288D01*
X002989Y009271D01*
X002946Y009252D01*
X002906Y009229D01*
X002867Y009203D01*
X002831Y009174D01*
X002797Y009142D01*
X002765Y009108D01*
X002736Y009072D01*
X002744Y009066D01*
X002772Y009102D01*
X002803Y009136D01*
X002837Y009167D01*
X002873Y009196D01*
X002911Y009221D01*
X002950Y009244D01*
X002992Y009263D01*
X003035Y009279D01*
X003079Y009292D01*
X003124Y009301D01*
X003169Y009307D01*
X003215Y009309D01*
X003215Y009300D01*
X003170Y009298D01*
X003125Y009292D01*
X003081Y009283D01*
X003038Y009271D01*
X002995Y009255D01*
X002955Y009236D01*
X002915Y009214D01*
X002878Y009188D01*
X002843Y009160D01*
X002809Y009130D01*
X002779Y009097D01*
X002751Y009061D01*
X003963Y009122D02*
X003883Y009079D01*
X003884Y009080D02*
X003857Y009126D01*
X003826Y009170D01*
X003793Y009212D01*
X003756Y009252D01*
X003717Y009288D01*
X003675Y009322D01*
X003631Y009353D01*
X003585Y009381D01*
X003537Y009405D01*
X003488Y009426D01*
X003437Y009443D01*
X003385Y009457D01*
X003332Y009467D01*
X003279Y009473D01*
X003225Y009475D01*
X003225Y009564D01*
X003225Y009565D01*
X003281Y009563D01*
X003338Y009557D01*
X003393Y009547D01*
X003448Y009534D01*
X003502Y009517D01*
X003554Y009496D01*
X003605Y009472D01*
X003655Y009445D01*
X003702Y009414D01*
X003747Y009380D01*
X003790Y009344D01*
X003831Y009304D01*
X003868Y009262D01*
X003903Y009217D01*
X003935Y009171D01*
X003963Y009122D01*
X003955Y009118D01*
X003927Y009166D01*
X003896Y009212D01*
X003861Y009256D01*
X003824Y009298D01*
X003784Y009337D01*
X003742Y009373D01*
X003697Y009407D01*
X003650Y009437D01*
X003601Y009464D01*
X003551Y009488D01*
X003499Y009508D01*
X003446Y009525D01*
X003391Y009538D01*
X003336Y009548D01*
X003281Y009554D01*
X003225Y009556D01*
X003225Y009547D01*
X003280Y009545D01*
X003335Y009539D01*
X003390Y009529D01*
X003443Y009516D01*
X003496Y009500D01*
X003547Y009479D01*
X003597Y009456D01*
X003646Y009429D01*
X003692Y009399D01*
X003736Y009366D01*
X003778Y009330D01*
X003818Y009292D01*
X003854Y009250D01*
X003888Y009207D01*
X003919Y009161D01*
X003947Y009114D01*
X003939Y009109D01*
X003912Y009156D01*
X003881Y009202D01*
X003848Y009245D01*
X003811Y009285D01*
X003772Y009324D01*
X003731Y009359D01*
X003687Y009392D01*
X003641Y009421D01*
X003593Y009448D01*
X003544Y009471D01*
X003493Y009491D01*
X003441Y009508D01*
X003388Y009521D01*
X003334Y009530D01*
X003280Y009536D01*
X003225Y009538D01*
X003225Y009529D01*
X003279Y009527D01*
X003333Y009521D01*
X003386Y009512D01*
X003438Y009499D01*
X003490Y009483D01*
X003540Y009463D01*
X003589Y009440D01*
X003636Y009414D01*
X003682Y009384D01*
X003725Y009352D01*
X003766Y009317D01*
X003805Y009279D01*
X003841Y009239D01*
X003874Y009196D01*
X003904Y009152D01*
X003931Y009105D01*
X003924Y009101D01*
X003897Y009147D01*
X003867Y009191D01*
X003834Y009233D01*
X003798Y009273D01*
X003760Y009310D01*
X003719Y009345D01*
X003676Y009377D01*
X003632Y009406D01*
X003585Y009432D01*
X003537Y009455D01*
X003487Y009474D01*
X003436Y009490D01*
X003384Y009503D01*
X003331Y009512D01*
X003278Y009518D01*
X003225Y009520D01*
X003225Y009511D01*
X003278Y009509D01*
X003330Y009503D01*
X003382Y009494D01*
X003434Y009482D01*
X003484Y009466D01*
X003533Y009446D01*
X003581Y009424D01*
X003627Y009398D01*
X003671Y009370D01*
X003714Y009338D01*
X003754Y009304D01*
X003792Y009267D01*
X003827Y009227D01*
X003859Y009186D01*
X003889Y009142D01*
X003916Y009097D01*
X003908Y009092D01*
X003879Y009140D01*
X003848Y009186D01*
X003813Y009230D01*
X003775Y009271D01*
X003735Y009309D01*
X003692Y009344D01*
X003646Y009376D01*
X003598Y009404D01*
X003549Y009430D01*
X003497Y009451D01*
X003445Y009469D01*
X003391Y009483D01*
X003336Y009493D01*
X003281Y009500D01*
X003225Y009502D01*
X003225Y009493D01*
X003280Y009491D01*
X003335Y009484D01*
X003389Y009474D01*
X003442Y009460D01*
X003494Y009443D01*
X003545Y009421D01*
X003594Y009397D01*
X003641Y009368D01*
X003686Y009337D01*
X003729Y009302D01*
X003769Y009264D01*
X003806Y009224D01*
X003841Y009181D01*
X003872Y009136D01*
X003900Y009088D01*
X003892Y009084D01*
X003864Y009131D01*
X003833Y009176D01*
X003799Y009218D01*
X003762Y009258D01*
X003723Y009295D01*
X003681Y009329D01*
X003636Y009361D01*
X003590Y009389D01*
X003541Y009413D01*
X003491Y009434D01*
X003439Y009452D01*
X003387Y009466D01*
X003333Y009476D01*
X003279Y009482D01*
X003225Y009484D01*
X002579Y008171D02*
X002647Y008229D01*
X002647Y008228D02*
X002683Y008189D01*
X002723Y008152D01*
X002764Y008118D01*
X002808Y008087D01*
X002854Y008059D01*
X002902Y008035D01*
X002952Y008014D01*
X003003Y007997D01*
X003055Y007983D01*
X003108Y007973D01*
X003161Y007967D01*
X003215Y007965D01*
X003216Y007876D01*
X003215Y007875D01*
X003159Y007877D01*
X003104Y007883D01*
X003049Y007892D01*
X002995Y007906D01*
X002942Y007922D01*
X002890Y007942D01*
X002839Y007966D01*
X002791Y007992D01*
X002744Y008022D01*
X002699Y008055D01*
X002656Y008091D01*
X002616Y008129D01*
X002578Y008170D01*
X002585Y008176D01*
X002622Y008136D01*
X002662Y008097D01*
X002704Y008062D01*
X002749Y008030D01*
X002795Y008000D01*
X002843Y007974D01*
X002893Y007950D01*
X002945Y007931D01*
X002997Y007914D01*
X003051Y007901D01*
X003105Y007892D01*
X003160Y007886D01*
X003215Y007884D01*
X003215Y007893D01*
X003161Y007895D01*
X003106Y007901D01*
X003053Y007910D01*
X003000Y007923D01*
X002948Y007939D01*
X002897Y007959D01*
X002848Y007982D01*
X002800Y008008D01*
X002754Y008037D01*
X002710Y008069D01*
X002668Y008104D01*
X002629Y008142D01*
X002592Y008182D01*
X002599Y008188D01*
X002635Y008148D01*
X002674Y008111D01*
X002715Y008076D01*
X002759Y008044D01*
X002804Y008015D01*
X002852Y007990D01*
X002900Y007967D01*
X002951Y007948D01*
X003002Y007932D01*
X003055Y007919D01*
X003108Y007910D01*
X003161Y007904D01*
X003215Y007902D01*
X003215Y007911D01*
X003162Y007913D01*
X003109Y007919D01*
X003056Y007928D01*
X003005Y007940D01*
X002954Y007956D01*
X002904Y007975D01*
X002856Y007998D01*
X002809Y008023D01*
X002764Y008052D01*
X002721Y008083D01*
X002680Y008117D01*
X002642Y008154D01*
X002606Y008194D01*
X002613Y008199D01*
X002648Y008161D01*
X002686Y008124D01*
X002727Y008090D01*
X002769Y008059D01*
X002813Y008031D01*
X002860Y008006D01*
X002907Y007984D01*
X002957Y007965D01*
X003007Y007949D01*
X003058Y007937D01*
X003110Y007928D01*
X003162Y007922D01*
X003215Y007920D01*
X003215Y007929D01*
X003163Y007931D01*
X003111Y007937D01*
X003060Y007945D01*
X003009Y007958D01*
X002960Y007973D01*
X002911Y007992D01*
X002864Y008014D01*
X002818Y008039D01*
X002774Y008067D01*
X002732Y008097D01*
X002692Y008131D01*
X002655Y008167D01*
X002619Y008205D01*
X002626Y008211D01*
X002664Y008170D01*
X002705Y008132D01*
X002748Y008097D01*
X002793Y008065D01*
X002841Y008036D01*
X002891Y008011D01*
X002942Y007989D01*
X002995Y007971D01*
X003049Y007957D01*
X003104Y007947D01*
X003159Y007940D01*
X003215Y007938D01*
X003215Y007947D01*
X003160Y007949D01*
X003105Y007956D01*
X003051Y007966D01*
X002998Y007980D01*
X002946Y007997D01*
X002895Y008019D01*
X002846Y008044D01*
X002798Y008072D01*
X002753Y008104D01*
X002711Y008139D01*
X002670Y008176D01*
X002633Y008217D01*
X002640Y008223D01*
X002677Y008183D01*
X002717Y008145D01*
X002759Y008111D01*
X002803Y008080D01*
X002850Y008052D01*
X002899Y008027D01*
X002949Y008006D01*
X003000Y007988D01*
X003053Y007974D01*
X003107Y007964D01*
X003161Y007958D01*
X003215Y007956D01*
X003716Y009098D02*
X003676Y009068D01*
X003677Y009069D02*
X003649Y009103D01*
X003619Y009134D01*
X003587Y009163D01*
X003552Y009190D01*
X003515Y009213D01*
X003477Y009234D01*
X003437Y009252D01*
X003397Y009267D01*
X003355Y009279D01*
X003312Y009288D01*
X003269Y009293D01*
X003225Y009295D01*
X003224Y009344D01*
X003225Y009345D01*
X003272Y009343D01*
X003320Y009337D01*
X003366Y009328D01*
X003412Y009315D01*
X003456Y009299D01*
X003500Y009279D01*
X003541Y009256D01*
X003581Y009230D01*
X003619Y009201D01*
X003654Y009170D01*
X003687Y009136D01*
X003717Y009099D01*
X003710Y009094D01*
X003680Y009130D01*
X003648Y009163D01*
X003613Y009195D01*
X003576Y009223D01*
X003536Y009248D01*
X003495Y009271D01*
X003453Y009290D01*
X003409Y009306D01*
X003364Y009319D01*
X003318Y009328D01*
X003272Y009334D01*
X003225Y009336D01*
X003225Y009327D01*
X003271Y009325D01*
X003317Y009319D01*
X003362Y009310D01*
X003406Y009298D01*
X003450Y009282D01*
X003491Y009263D01*
X003532Y009241D01*
X003570Y009216D01*
X003607Y009188D01*
X003641Y009157D01*
X003673Y009124D01*
X003703Y009088D01*
X003695Y009083D01*
X003667Y009118D01*
X003635Y009150D01*
X003601Y009181D01*
X003565Y009208D01*
X003527Y009233D01*
X003487Y009255D01*
X003446Y009274D01*
X003403Y009289D01*
X003360Y009301D01*
X003315Y009310D01*
X003270Y009316D01*
X003225Y009318D01*
X003225Y009309D01*
X003270Y009307D01*
X003314Y009301D01*
X003358Y009293D01*
X003401Y009281D01*
X003443Y009265D01*
X003483Y009247D01*
X003523Y009225D01*
X003560Y009201D01*
X003595Y009174D01*
X003629Y009144D01*
X003660Y009112D01*
X003688Y009077D01*
X003681Y009072D01*
X003653Y009106D01*
X003623Y009138D01*
X003590Y009167D01*
X003555Y009194D01*
X003518Y009218D01*
X003479Y009239D01*
X003439Y009257D01*
X003398Y009272D01*
X003356Y009284D01*
X003313Y009293D01*
X003269Y009298D01*
X003225Y009300D01*
X003216Y009564D02*
X003216Y009474D01*
X003215Y009475D02*
X003161Y009473D01*
X003107Y009466D01*
X003054Y009456D01*
X003001Y009443D01*
X002950Y009425D01*
X002900Y009404D01*
X002851Y009379D01*
X002805Y009351D01*
X002761Y009319D01*
X002719Y009285D01*
X002680Y009247D01*
X002643Y009207D01*
X002575Y009264D01*
X002574Y009265D01*
X002612Y009307D01*
X002652Y009346D01*
X002695Y009382D01*
X002740Y009415D01*
X002787Y009446D01*
X002836Y009473D01*
X002887Y009497D01*
X002940Y009517D01*
X002993Y009534D01*
X003048Y009547D01*
X003103Y009557D01*
X003159Y009563D01*
X003215Y009565D01*
X003215Y009556D01*
X003159Y009554D01*
X003104Y009548D01*
X003050Y009538D01*
X002996Y009525D01*
X002943Y009509D01*
X002891Y009488D01*
X002840Y009465D01*
X002792Y009438D01*
X002745Y009408D01*
X002700Y009375D01*
X002658Y009339D01*
X002618Y009300D01*
X002581Y009259D01*
X002588Y009253D01*
X002625Y009294D01*
X002664Y009332D01*
X002706Y009368D01*
X002750Y009401D01*
X002796Y009430D01*
X002845Y009457D01*
X002894Y009480D01*
X002946Y009500D01*
X002998Y009517D01*
X003051Y009530D01*
X003105Y009539D01*
X003160Y009545D01*
X003215Y009547D01*
X003215Y009538D01*
X003161Y009536D01*
X003107Y009530D01*
X003053Y009521D01*
X003000Y009508D01*
X002948Y009492D01*
X002898Y009472D01*
X002849Y009449D01*
X002801Y009423D01*
X002755Y009393D01*
X002712Y009361D01*
X002670Y009326D01*
X002631Y009288D01*
X002595Y009248D01*
X002602Y009242D01*
X002638Y009282D01*
X002676Y009319D01*
X002717Y009354D01*
X002760Y009386D01*
X002806Y009415D01*
X002853Y009441D01*
X002901Y009464D01*
X002951Y009483D01*
X003003Y009499D01*
X003055Y009512D01*
X003108Y009521D01*
X003161Y009527D01*
X003215Y009529D01*
X003215Y009520D01*
X003162Y009518D01*
X003109Y009512D01*
X003057Y009503D01*
X003005Y009491D01*
X002954Y009475D01*
X002905Y009455D01*
X002857Y009433D01*
X002810Y009407D01*
X002766Y009378D01*
X002723Y009347D01*
X002682Y009312D01*
X002644Y009275D01*
X002609Y009236D01*
X002616Y009230D01*
X002651Y009269D01*
X002688Y009306D01*
X002729Y009340D01*
X002771Y009371D01*
X002815Y009399D01*
X002861Y009425D01*
X002908Y009447D01*
X002957Y009466D01*
X003008Y009482D01*
X003059Y009494D01*
X003110Y009503D01*
X003163Y009509D01*
X003215Y009511D01*
X003215Y009502D01*
X003163Y009500D01*
X003112Y009494D01*
X003060Y009486D01*
X003010Y009473D01*
X002960Y009458D01*
X002912Y009439D01*
X002865Y009417D01*
X002820Y009392D01*
X002776Y009364D01*
X002734Y009333D01*
X002695Y009299D01*
X002657Y009263D01*
X002622Y009224D01*
X002629Y009219D01*
X002664Y009257D01*
X002701Y009293D01*
X002740Y009326D01*
X002781Y009356D01*
X002824Y009384D01*
X002869Y009409D01*
X002916Y009431D01*
X002963Y009449D01*
X003012Y009465D01*
X003062Y009477D01*
X003113Y009486D01*
X003164Y009491D01*
X003215Y009493D01*
X003215Y009484D01*
X003160Y009482D01*
X003106Y009475D01*
X003052Y009465D01*
X002998Y009451D01*
X002947Y009433D01*
X002896Y009412D01*
X002847Y009387D01*
X002800Y009358D01*
X002755Y009326D01*
X002713Y009292D01*
X002673Y009254D01*
X002636Y009213D01*
X003225Y008096D02*
X003225Y008146D01*
X003225Y008145D02*
X003272Y008147D01*
X003318Y008153D01*
X003363Y008163D01*
X003408Y008177D01*
X003451Y008194D01*
X003493Y008214D01*
X003533Y008238D01*
X003572Y008265D01*
X003607Y008295D01*
X003640Y008328D01*
X003671Y008363D01*
X003710Y008333D01*
X003710Y008332D01*
X003680Y008297D01*
X003647Y008264D01*
X003612Y008233D01*
X003575Y008206D01*
X003536Y008181D01*
X003495Y008159D01*
X003452Y008140D01*
X003408Y008124D01*
X003363Y008112D01*
X003318Y008103D01*
X003271Y008097D01*
X003225Y008095D01*
X003225Y008104D01*
X003271Y008106D01*
X003316Y008112D01*
X003361Y008120D01*
X003406Y008133D01*
X003449Y008148D01*
X003491Y008167D01*
X003531Y008188D01*
X003570Y008213D01*
X003607Y008240D01*
X003641Y008270D01*
X003673Y008303D01*
X003703Y008338D01*
X003696Y008343D01*
X003667Y008309D01*
X003635Y008277D01*
X003601Y008247D01*
X003565Y008220D01*
X003527Y008196D01*
X003487Y008175D01*
X003445Y008156D01*
X003403Y008141D01*
X003359Y008129D01*
X003315Y008120D01*
X003270Y008115D01*
X003225Y008113D01*
X003225Y008122D01*
X003273Y008124D01*
X003322Y008131D01*
X003369Y008141D01*
X003416Y008155D01*
X003461Y008173D01*
X003504Y008194D01*
X003546Y008219D01*
X003586Y008247D01*
X003623Y008278D01*
X003657Y008312D01*
X003689Y008349D01*
X003682Y008354D01*
X003651Y008318D01*
X003617Y008285D01*
X003580Y008254D01*
X003541Y008226D01*
X003500Y008202D01*
X003457Y008181D01*
X003413Y008163D01*
X003367Y008150D01*
X003320Y008140D01*
X003273Y008133D01*
X003225Y008131D01*
X003225Y008140D01*
X003272Y008142D01*
X003319Y008148D01*
X003365Y008158D01*
X003410Y008172D01*
X003453Y008189D01*
X003496Y008210D01*
X003536Y008234D01*
X003575Y008261D01*
X003611Y008291D01*
X003644Y008324D01*
X003675Y008360D01*
X002730Y008333D02*
X002770Y008364D01*
X002769Y008363D02*
X002800Y008328D01*
X002833Y008295D01*
X002868Y008265D01*
X002907Y008238D01*
X002947Y008214D01*
X002989Y008194D01*
X003032Y008177D01*
X003077Y008163D01*
X003122Y008153D01*
X003168Y008147D01*
X003215Y008145D01*
X003215Y008096D01*
X003215Y008095D01*
X003169Y008097D01*
X003122Y008103D01*
X003077Y008112D01*
X003032Y008124D01*
X002988Y008140D01*
X002945Y008159D01*
X002904Y008181D01*
X002865Y008206D01*
X002828Y008233D01*
X002793Y008264D01*
X002760Y008297D01*
X002730Y008332D01*
X002737Y008338D01*
X002767Y008303D01*
X002799Y008270D01*
X002833Y008240D01*
X002870Y008213D01*
X002909Y008188D01*
X002949Y008167D01*
X002991Y008148D01*
X003034Y008133D01*
X003079Y008120D01*
X003124Y008112D01*
X003169Y008106D01*
X003215Y008104D01*
X003215Y008113D01*
X003170Y008115D01*
X003125Y008120D01*
X003081Y008129D01*
X003037Y008141D01*
X002995Y008156D01*
X002953Y008175D01*
X002913Y008196D01*
X002875Y008220D01*
X002839Y008247D01*
X002805Y008277D01*
X002773Y008309D01*
X002744Y008343D01*
X002751Y008349D01*
X002783Y008312D01*
X002817Y008278D01*
X002854Y008247D01*
X002894Y008219D01*
X002936Y008194D01*
X002979Y008173D01*
X003024Y008155D01*
X003071Y008141D01*
X003118Y008131D01*
X003167Y008124D01*
X003215Y008122D01*
X003215Y008131D01*
X003167Y008133D01*
X003120Y008140D01*
X003073Y008150D01*
X003027Y008163D01*
X002983Y008181D01*
X002940Y008202D01*
X002899Y008226D01*
X002860Y008254D01*
X002823Y008285D01*
X002789Y008318D01*
X002758Y008354D01*
X002765Y008360D01*
X002796Y008324D01*
X002829Y008291D01*
X002865Y008261D01*
X002904Y008234D01*
X002944Y008210D01*
X002987Y008189D01*
X003030Y008172D01*
X003075Y008158D01*
X003121Y008148D01*
X003168Y008142D01*
X003215Y008140D01*
X003224Y005376D02*
X003224Y005466D01*
X003225Y005465D02*
X003277Y005467D01*
X003329Y005473D01*
X003381Y005482D01*
X003431Y005495D01*
X003481Y005511D01*
X003529Y005531D01*
X003576Y005554D01*
X003621Y005580D01*
X003665Y005610D01*
X003706Y005642D01*
X003745Y005677D01*
X003781Y005715D01*
X003814Y005755D01*
X003845Y005797D01*
X003873Y005841D01*
X003951Y005797D01*
X003951Y005796D01*
X003922Y005750D01*
X003890Y005705D01*
X003855Y005663D01*
X003818Y005623D01*
X003778Y005585D01*
X003735Y005550D01*
X003691Y005518D01*
X003644Y005489D01*
X003596Y005463D01*
X003546Y005440D01*
X003494Y005421D01*
X003442Y005405D01*
X003389Y005392D01*
X003334Y005383D01*
X003280Y005377D01*
X003225Y005375D01*
X003225Y005384D01*
X003279Y005386D01*
X003333Y005392D01*
X003387Y005401D01*
X003440Y005413D01*
X003492Y005429D01*
X003542Y005449D01*
X003592Y005471D01*
X003640Y005497D01*
X003686Y005526D01*
X003730Y005557D01*
X003772Y005592D01*
X003811Y005629D01*
X003848Y005669D01*
X003883Y005711D01*
X003915Y005755D01*
X003943Y005801D01*
X003936Y005805D01*
X003907Y005760D01*
X003876Y005716D01*
X003842Y005675D01*
X003805Y005635D01*
X003766Y005599D01*
X003724Y005565D01*
X003681Y005533D01*
X003635Y005505D01*
X003588Y005479D01*
X003539Y005457D01*
X003489Y005438D01*
X003437Y005422D01*
X003385Y005410D01*
X003332Y005401D01*
X003279Y005395D01*
X003225Y005393D01*
X003225Y005402D01*
X003282Y005404D01*
X003338Y005411D01*
X003394Y005421D01*
X003449Y005435D01*
X003502Y005452D01*
X003555Y005474D01*
X003606Y005499D01*
X003655Y005527D01*
X003702Y005559D01*
X003746Y005594D01*
X003788Y005632D01*
X003828Y005673D01*
X003864Y005716D01*
X003898Y005762D01*
X003928Y005810D01*
X003920Y005814D01*
X003890Y005767D01*
X003857Y005721D01*
X003821Y005679D01*
X003782Y005638D01*
X003741Y005601D01*
X003696Y005566D01*
X003650Y005535D01*
X003602Y005507D01*
X003551Y005482D01*
X003499Y005461D01*
X003446Y005443D01*
X003392Y005429D01*
X003337Y005419D01*
X003281Y005413D01*
X003225Y005411D01*
X003225Y005420D01*
X003280Y005422D01*
X003335Y005428D01*
X003390Y005438D01*
X003444Y005452D01*
X003496Y005469D01*
X003548Y005490D01*
X003597Y005515D01*
X003645Y005542D01*
X003691Y005573D01*
X003735Y005608D01*
X003776Y005645D01*
X003814Y005685D01*
X003850Y005727D01*
X003883Y005772D01*
X003912Y005819D01*
X003904Y005823D01*
X003875Y005777D01*
X003843Y005733D01*
X003808Y005691D01*
X003770Y005651D01*
X003729Y005614D01*
X003686Y005581D01*
X003640Y005550D01*
X003593Y005523D01*
X003544Y005498D01*
X003493Y005478D01*
X003441Y005461D01*
X003388Y005447D01*
X003334Y005437D01*
X003280Y005431D01*
X003225Y005429D01*
X003225Y005438D01*
X003279Y005440D01*
X003333Y005446D01*
X003386Y005456D01*
X003439Y005469D01*
X003490Y005486D01*
X003540Y005507D01*
X003589Y005530D01*
X003636Y005558D01*
X003681Y005588D01*
X003723Y005621D01*
X003763Y005658D01*
X003801Y005697D01*
X003836Y005738D01*
X003868Y005782D01*
X003896Y005828D01*
X003889Y005832D01*
X003860Y005787D01*
X003829Y005744D01*
X003794Y005703D01*
X003757Y005664D01*
X003717Y005628D01*
X003675Y005595D01*
X003631Y005565D01*
X003585Y005538D01*
X003537Y005515D01*
X003487Y005495D01*
X003436Y005478D01*
X003384Y005465D01*
X003332Y005455D01*
X003278Y005449D01*
X003225Y005447D01*
X003225Y005456D01*
X003278Y005458D01*
X003330Y005464D01*
X003382Y005473D01*
X003434Y005486D01*
X003484Y005503D01*
X003533Y005523D01*
X003580Y005546D01*
X003626Y005573D01*
X003670Y005603D01*
X003712Y005635D01*
X003751Y005671D01*
X003788Y005709D01*
X003822Y005749D01*
X003853Y005792D01*
X003881Y005837D01*
X003215Y006844D02*
X003215Y006794D01*
X003215Y006795D02*
X003170Y006793D01*
X003126Y006787D01*
X003082Y006778D01*
X003039Y006766D01*
X002997Y006750D01*
X002957Y006731D01*
X002918Y006709D01*
X002881Y006684D01*
X002846Y006657D01*
X002813Y006626D01*
X002783Y006593D01*
X002755Y006558D01*
X002715Y006587D01*
X002714Y006587D01*
X002744Y006626D01*
X002777Y006661D01*
X002813Y006694D01*
X002851Y006725D01*
X002892Y006752D01*
X002934Y006776D01*
X002978Y006796D01*
X003024Y006813D01*
X003070Y006827D01*
X003118Y006837D01*
X003166Y006843D01*
X003215Y006845D01*
X003215Y006836D01*
X003167Y006834D01*
X003120Y006828D01*
X003073Y006818D01*
X003026Y006805D01*
X002982Y006788D01*
X002938Y006768D01*
X002896Y006744D01*
X002857Y006717D01*
X002819Y006688D01*
X002784Y006655D01*
X002751Y006620D01*
X002722Y006582D01*
X002729Y006577D01*
X002758Y006614D01*
X002790Y006649D01*
X002825Y006681D01*
X002862Y006710D01*
X002901Y006736D01*
X002942Y006760D01*
X002985Y006780D01*
X003029Y006796D01*
X003075Y006809D01*
X003121Y006819D01*
X003168Y006825D01*
X003215Y006827D01*
X003215Y006818D01*
X003169Y006816D01*
X003122Y006810D01*
X003077Y006801D01*
X003032Y006788D01*
X002989Y006771D01*
X002946Y006752D01*
X002906Y006729D01*
X002867Y006703D01*
X002831Y006674D01*
X002797Y006642D01*
X002765Y006608D01*
X002736Y006572D01*
X002744Y006566D01*
X002772Y006602D01*
X002803Y006636D01*
X002837Y006667D01*
X002873Y006696D01*
X002911Y006721D01*
X002950Y006744D01*
X002992Y006763D01*
X003035Y006779D01*
X003079Y006792D01*
X003124Y006801D01*
X003169Y006807D01*
X003215Y006809D01*
X003215Y006800D01*
X003170Y006798D01*
X003125Y006792D01*
X003081Y006783D01*
X003038Y006771D01*
X002995Y006755D01*
X002955Y006736D01*
X002915Y006714D01*
X002878Y006688D01*
X002843Y006660D01*
X002809Y006630D01*
X002779Y006597D01*
X002751Y006561D01*
X003963Y006622D02*
X003883Y006579D01*
X003884Y006580D02*
X003857Y006626D01*
X003826Y006670D01*
X003793Y006712D01*
X003756Y006752D01*
X003717Y006788D01*
X003675Y006822D01*
X003631Y006853D01*
X003585Y006881D01*
X003537Y006905D01*
X003488Y006926D01*
X003437Y006943D01*
X003385Y006957D01*
X003332Y006967D01*
X003279Y006973D01*
X003225Y006975D01*
X003225Y007064D01*
X003225Y007065D01*
X003281Y007063D01*
X003338Y007057D01*
X003393Y007047D01*
X003448Y007034D01*
X003502Y007017D01*
X003554Y006996D01*
X003605Y006972D01*
X003655Y006945D01*
X003702Y006914D01*
X003747Y006880D01*
X003790Y006844D01*
X003831Y006804D01*
X003868Y006762D01*
X003903Y006717D01*
X003935Y006671D01*
X003963Y006622D01*
X003955Y006618D01*
X003927Y006666D01*
X003896Y006712D01*
X003861Y006756D01*
X003824Y006798D01*
X003784Y006837D01*
X003742Y006873D01*
X003697Y006907D01*
X003650Y006937D01*
X003601Y006964D01*
X003551Y006988D01*
X003499Y007008D01*
X003446Y007025D01*
X003391Y007038D01*
X003336Y007048D01*
X003281Y007054D01*
X003225Y007056D01*
X003225Y007047D01*
X003280Y007045D01*
X003335Y007039D01*
X003390Y007029D01*
X003443Y007016D01*
X003496Y007000D01*
X003547Y006979D01*
X003597Y006956D01*
X003646Y006929D01*
X003692Y006899D01*
X003736Y006866D01*
X003778Y006830D01*
X003818Y006792D01*
X003854Y006750D01*
X003888Y006707D01*
X003919Y006661D01*
X003947Y006614D01*
X003939Y006609D01*
X003912Y006656D01*
X003881Y006702D01*
X003848Y006745D01*
X003811Y006785D01*
X003772Y006824D01*
X003731Y006859D01*
X003687Y006892D01*
X003641Y006921D01*
X003593Y006948D01*
X003544Y006971D01*
X003493Y006991D01*
X003441Y007008D01*
X003388Y007021D01*
X003334Y007030D01*
X003280Y007036D01*
X003225Y007038D01*
X003225Y007029D01*
X003279Y007027D01*
X003333Y007021D01*
X003386Y007012D01*
X003438Y006999D01*
X003490Y006983D01*
X003540Y006963D01*
X003589Y006940D01*
X003636Y006914D01*
X003682Y006884D01*
X003725Y006852D01*
X003766Y006817D01*
X003805Y006779D01*
X003841Y006739D01*
X003874Y006696D01*
X003904Y006652D01*
X003931Y006605D01*
X003924Y006601D01*
X003897Y006647D01*
X003867Y006691D01*
X003834Y006733D01*
X003798Y006773D01*
X003760Y006810D01*
X003719Y006845D01*
X003676Y006877D01*
X003632Y006906D01*
X003585Y006932D01*
X003537Y006955D01*
X003487Y006974D01*
X003436Y006990D01*
X003384Y007003D01*
X003331Y007012D01*
X003278Y007018D01*
X003225Y007020D01*
X003225Y007011D01*
X003278Y007009D01*
X003330Y007003D01*
X003382Y006994D01*
X003434Y006982D01*
X003484Y006966D01*
X003533Y006946D01*
X003581Y006924D01*
X003627Y006898D01*
X003671Y006870D01*
X003714Y006838D01*
X003754Y006804D01*
X003792Y006767D01*
X003827Y006727D01*
X003859Y006686D01*
X003889Y006642D01*
X003916Y006597D01*
X003908Y006592D01*
X003879Y006640D01*
X003848Y006686D01*
X003813Y006730D01*
X003775Y006771D01*
X003735Y006809D01*
X003692Y006844D01*
X003646Y006876D01*
X003598Y006904D01*
X003549Y006930D01*
X003497Y006951D01*
X003445Y006969D01*
X003391Y006983D01*
X003336Y006993D01*
X003281Y007000D01*
X003225Y007002D01*
X003225Y006993D01*
X003280Y006991D01*
X003335Y006984D01*
X003389Y006974D01*
X003442Y006960D01*
X003494Y006943D01*
X003545Y006921D01*
X003594Y006897D01*
X003641Y006868D01*
X003686Y006837D01*
X003729Y006802D01*
X003769Y006764D01*
X003806Y006724D01*
X003841Y006681D01*
X003872Y006636D01*
X003900Y006588D01*
X003892Y006584D01*
X003864Y006631D01*
X003833Y006676D01*
X003799Y006718D01*
X003762Y006758D01*
X003723Y006795D01*
X003681Y006829D01*
X003636Y006861D01*
X003590Y006889D01*
X003541Y006913D01*
X003491Y006934D01*
X003439Y006952D01*
X003387Y006966D01*
X003333Y006976D01*
X003279Y006982D01*
X003225Y006984D01*
X002579Y005671D02*
X002647Y005729D01*
X002647Y005728D02*
X002683Y005689D01*
X002723Y005652D01*
X002764Y005618D01*
X002808Y005587D01*
X002854Y005559D01*
X002902Y005535D01*
X002952Y005514D01*
X003003Y005497D01*
X003055Y005483D01*
X003108Y005473D01*
X003161Y005467D01*
X003215Y005465D01*
X003216Y005376D01*
X003215Y005375D01*
X003159Y005377D01*
X003104Y005383D01*
X003049Y005392D01*
X002995Y005406D01*
X002942Y005422D01*
X002890Y005442D01*
X002839Y005466D01*
X002791Y005492D01*
X002744Y005522D01*
X002699Y005555D01*
X002656Y005591D01*
X002616Y005629D01*
X002578Y005670D01*
X002585Y005676D01*
X002622Y005636D01*
X002662Y005597D01*
X002704Y005562D01*
X002749Y005530D01*
X002795Y005500D01*
X002843Y005474D01*
X002893Y005450D01*
X002945Y005431D01*
X002997Y005414D01*
X003051Y005401D01*
X003105Y005392D01*
X003160Y005386D01*
X003215Y005384D01*
X003215Y005393D01*
X003161Y005395D01*
X003106Y005401D01*
X003053Y005410D01*
X003000Y005423D01*
X002948Y005439D01*
X002897Y005459D01*
X002848Y005482D01*
X002800Y005508D01*
X002754Y005537D01*
X002710Y005569D01*
X002668Y005604D01*
X002629Y005642D01*
X002592Y005682D01*
X002599Y005688D01*
X002635Y005648D01*
X002674Y005611D01*
X002715Y005576D01*
X002759Y005544D01*
X002804Y005515D01*
X002852Y005490D01*
X002900Y005467D01*
X002951Y005448D01*
X003002Y005432D01*
X003055Y005419D01*
X003108Y005410D01*
X003161Y005404D01*
X003215Y005402D01*
X003215Y005411D01*
X003162Y005413D01*
X003109Y005419D01*
X003056Y005428D01*
X003005Y005440D01*
X002954Y005456D01*
X002904Y005475D01*
X002856Y005498D01*
X002809Y005523D01*
X002764Y005552D01*
X002721Y005583D01*
X002680Y005617D01*
X002642Y005654D01*
X002606Y005694D01*
X002613Y005699D01*
X002648Y005661D01*
X002686Y005624D01*
X002727Y005590D01*
X002769Y005559D01*
X002813Y005531D01*
X002860Y005506D01*
X002907Y005484D01*
X002957Y005465D01*
X003007Y005449D01*
X003058Y005437D01*
X003110Y005428D01*
X003162Y005422D01*
X003215Y005420D01*
X003215Y005429D01*
X003163Y005431D01*
X003111Y005437D01*
X003060Y005445D01*
X003009Y005458D01*
X002960Y005473D01*
X002911Y005492D01*
X002864Y005514D01*
X002818Y005539D01*
X002774Y005567D01*
X002732Y005597D01*
X002692Y005631D01*
X002655Y005667D01*
X002619Y005705D01*
X002626Y005711D01*
X002664Y005670D01*
X002705Y005632D01*
X002748Y005597D01*
X002793Y005565D01*
X002841Y005536D01*
X002891Y005511D01*
X002942Y005489D01*
X002995Y005471D01*
X003049Y005457D01*
X003104Y005447D01*
X003159Y005440D01*
X003215Y005438D01*
X003215Y005447D01*
X003160Y005449D01*
X003105Y005456D01*
X003051Y005466D01*
X002998Y005480D01*
X002946Y005497D01*
X002895Y005519D01*
X002846Y005544D01*
X002798Y005572D01*
X002753Y005604D01*
X002711Y005639D01*
X002670Y005676D01*
X002633Y005717D01*
X002640Y005723D01*
X002677Y005683D01*
X002717Y005645D01*
X002759Y005611D01*
X002803Y005580D01*
X002850Y005552D01*
X002899Y005527D01*
X002949Y005506D01*
X003000Y005488D01*
X003053Y005474D01*
X003107Y005464D01*
X003161Y005458D01*
X003215Y005456D01*
X003716Y006598D02*
X003676Y006568D01*
X003677Y006569D02*
X003649Y006603D01*
X003619Y006634D01*
X003587Y006663D01*
X003552Y006690D01*
X003515Y006713D01*
X003477Y006734D01*
X003437Y006752D01*
X003397Y006767D01*
X003355Y006779D01*
X003312Y006788D01*
X003269Y006793D01*
X003225Y006795D01*
X003224Y006844D01*
X003225Y006845D01*
X003272Y006843D01*
X003320Y006837D01*
X003366Y006828D01*
X003412Y006815D01*
X003456Y006799D01*
X003500Y006779D01*
X003541Y006756D01*
X003581Y006730D01*
X003619Y006701D01*
X003654Y006670D01*
X003687Y006636D01*
X003717Y006599D01*
X003710Y006594D01*
X003680Y006630D01*
X003648Y006663D01*
X003613Y006695D01*
X003576Y006723D01*
X003536Y006748D01*
X003495Y006771D01*
X003453Y006790D01*
X003409Y006806D01*
X003364Y006819D01*
X003318Y006828D01*
X003272Y006834D01*
X003225Y006836D01*
X003225Y006827D01*
X003271Y006825D01*
X003317Y006819D01*
X003362Y006810D01*
X003406Y006798D01*
X003450Y006782D01*
X003491Y006763D01*
X003532Y006741D01*
X003570Y006716D01*
X003607Y006688D01*
X003641Y006657D01*
X003673Y006624D01*
X003703Y006588D01*
X003695Y006583D01*
X003667Y006618D01*
X003635Y006650D01*
X003601Y006681D01*
X003565Y006708D01*
X003527Y006733D01*
X003487Y006755D01*
X003446Y006774D01*
X003403Y006789D01*
X003360Y006801D01*
X003315Y006810D01*
X003270Y006816D01*
X003225Y006818D01*
X003225Y006809D01*
X003270Y006807D01*
X003314Y006801D01*
X003358Y006793D01*
X003401Y006781D01*
X003443Y006765D01*
X003483Y006747D01*
X003523Y006725D01*
X003560Y006701D01*
X003595Y006674D01*
X003629Y006644D01*
X003660Y006612D01*
X003688Y006577D01*
X003681Y006572D01*
X003653Y006606D01*
X003623Y006638D01*
X003590Y006667D01*
X003555Y006694D01*
X003518Y006718D01*
X003479Y006739D01*
X003439Y006757D01*
X003398Y006772D01*
X003356Y006784D01*
X003313Y006793D01*
X003269Y006798D01*
X003225Y006800D01*
X003216Y007064D02*
X003216Y006974D01*
X003215Y006975D02*
X003161Y006973D01*
X003107Y006966D01*
X003054Y006956D01*
X003001Y006943D01*
X002950Y006925D01*
X002900Y006904D01*
X002851Y006879D01*
X002805Y006851D01*
X002761Y006819D01*
X002719Y006785D01*
X002680Y006747D01*
X002643Y006707D01*
X002575Y006764D01*
X002574Y006765D01*
X002612Y006807D01*
X002652Y006846D01*
X002695Y006882D01*
X002740Y006915D01*
X002787Y006946D01*
X002836Y006973D01*
X002887Y006997D01*
X002940Y007017D01*
X002993Y007034D01*
X003048Y007047D01*
X003103Y007057D01*
X003159Y007063D01*
X003215Y007065D01*
X003215Y007056D01*
X003159Y007054D01*
X003104Y007048D01*
X003050Y007038D01*
X002996Y007025D01*
X002943Y007009D01*
X002891Y006988D01*
X002840Y006965D01*
X002792Y006938D01*
X002745Y006908D01*
X002700Y006875D01*
X002658Y006839D01*
X002618Y006800D01*
X002581Y006759D01*
X002588Y006753D01*
X002625Y006794D01*
X002664Y006832D01*
X002706Y006868D01*
X002750Y006901D01*
X002796Y006930D01*
X002845Y006957D01*
X002894Y006980D01*
X002946Y007000D01*
X002998Y007017D01*
X003051Y007030D01*
X003105Y007039D01*
X003160Y007045D01*
X003215Y007047D01*
X003215Y007038D01*
X003161Y007036D01*
X003107Y007030D01*
X003053Y007021D01*
X003000Y007008D01*
X002948Y006992D01*
X002898Y006972D01*
X002849Y006949D01*
X002801Y006923D01*
X002755Y006893D01*
X002712Y006861D01*
X002670Y006826D01*
X002631Y006788D01*
X002595Y006748D01*
X002602Y006742D01*
X002638Y006782D01*
X002676Y006819D01*
X002717Y006854D01*
X002760Y006886D01*
X002806Y006915D01*
X002853Y006941D01*
X002901Y006964D01*
X002951Y006983D01*
X003003Y006999D01*
X003055Y007012D01*
X003108Y007021D01*
X003161Y007027D01*
X003215Y007029D01*
X003215Y007020D01*
X003162Y007018D01*
X003109Y007012D01*
X003057Y007003D01*
X003005Y006991D01*
X002954Y006975D01*
X002905Y006955D01*
X002857Y006933D01*
X002810Y006907D01*
X002766Y006878D01*
X002723Y006847D01*
X002682Y006812D01*
X002644Y006775D01*
X002609Y006736D01*
X002616Y006730D01*
X002651Y006769D01*
X002688Y006806D01*
X002729Y006840D01*
X002771Y006871D01*
X002815Y006899D01*
X002861Y006925D01*
X002908Y006947D01*
X002957Y006966D01*
X003008Y006982D01*
X003059Y006994D01*
X003110Y007003D01*
X003163Y007009D01*
X003215Y007011D01*
X003215Y007002D01*
X003163Y007000D01*
X003112Y006994D01*
X003060Y006986D01*
X003010Y006973D01*
X002960Y006958D01*
X002912Y006939D01*
X002865Y006917D01*
X002820Y006892D01*
X002776Y006864D01*
X002734Y006833D01*
X002695Y006799D01*
X002657Y006763D01*
X002622Y006724D01*
X002629Y006719D01*
X002664Y006757D01*
X002701Y006793D01*
X002740Y006826D01*
X002781Y006856D01*
X002824Y006884D01*
X002869Y006909D01*
X002916Y006931D01*
X002963Y006949D01*
X003012Y006965D01*
X003062Y006977D01*
X003113Y006986D01*
X003164Y006991D01*
X003215Y006993D01*
X003215Y006984D01*
X003160Y006982D01*
X003106Y006975D01*
X003052Y006965D01*
X002998Y006951D01*
X002947Y006933D01*
X002896Y006912D01*
X002847Y006887D01*
X002800Y006858D01*
X002755Y006826D01*
X002713Y006792D01*
X002673Y006754D01*
X002636Y006713D01*
X003225Y005596D02*
X003225Y005646D01*
X003225Y005645D02*
X003272Y005647D01*
X003318Y005653D01*
X003363Y005663D01*
X003408Y005677D01*
X003451Y005694D01*
X003493Y005714D01*
X003533Y005738D01*
X003572Y005765D01*
X003607Y005795D01*
X003640Y005828D01*
X003671Y005863D01*
X003710Y005833D01*
X003710Y005832D01*
X003680Y005797D01*
X003647Y005764D01*
X003612Y005733D01*
X003575Y005706D01*
X003536Y005681D01*
X003495Y005659D01*
X003452Y005640D01*
X003408Y005624D01*
X003363Y005612D01*
X003318Y005603D01*
X003271Y005597D01*
X003225Y005595D01*
X003225Y005604D01*
X003271Y005606D01*
X003316Y005612D01*
X003361Y005620D01*
X003406Y005633D01*
X003449Y005648D01*
X003491Y005667D01*
X003531Y005688D01*
X003570Y005713D01*
X003607Y005740D01*
X003641Y005770D01*
X003673Y005803D01*
X003703Y005838D01*
X003696Y005843D01*
X003667Y005809D01*
X003635Y005777D01*
X003601Y005747D01*
X003565Y005720D01*
X003527Y005696D01*
X003487Y005675D01*
X003445Y005656D01*
X003403Y005641D01*
X003359Y005629D01*
X003315Y005620D01*
X003270Y005615D01*
X003225Y005613D01*
X003225Y005622D01*
X003273Y005624D01*
X003322Y005631D01*
X003369Y005641D01*
X003416Y005655D01*
X003461Y005673D01*
X003504Y005694D01*
X003546Y005719D01*
X003586Y005747D01*
X003623Y005778D01*
X003657Y005812D01*
X003689Y005849D01*
X003682Y005854D01*
X003651Y005818D01*
X003617Y005785D01*
X003580Y005754D01*
X003541Y005726D01*
X003500Y005702D01*
X003457Y005681D01*
X003413Y005663D01*
X003367Y005650D01*
X003320Y005640D01*
X003273Y005633D01*
X003225Y005631D01*
X003225Y005640D01*
X003272Y005642D01*
X003319Y005648D01*
X003365Y005658D01*
X003410Y005672D01*
X003453Y005689D01*
X003496Y005710D01*
X003536Y005734D01*
X003575Y005761D01*
X003611Y005791D01*
X003644Y005824D01*
X003675Y005860D01*
X002730Y005833D02*
X002770Y005864D01*
X002769Y005863D02*
X002800Y005828D01*
X002833Y005795D01*
X002868Y005765D01*
X002907Y005738D01*
X002947Y005714D01*
X002989Y005694D01*
X003032Y005677D01*
X003077Y005663D01*
X003122Y005653D01*
X003168Y005647D01*
X003215Y005645D01*
X003215Y005596D01*
X003215Y005595D01*
X003169Y005597D01*
X003122Y005603D01*
X003077Y005612D01*
X003032Y005624D01*
X002988Y005640D01*
X002945Y005659D01*
X002904Y005681D01*
X002865Y005706D01*
X002828Y005733D01*
X002793Y005764D01*
X002760Y005797D01*
X002730Y005832D01*
X002737Y005838D01*
X002767Y005803D01*
X002799Y005770D01*
X002833Y005740D01*
X002870Y005713D01*
X002909Y005688D01*
X002949Y005667D01*
X002991Y005648D01*
X003034Y005633D01*
X003079Y005620D01*
X003124Y005612D01*
X003169Y005606D01*
X003215Y005604D01*
X003215Y005613D01*
X003170Y005615D01*
X003125Y005620D01*
X003081Y005629D01*
X003037Y005641D01*
X002995Y005656D01*
X002953Y005675D01*
X002913Y005696D01*
X002875Y005720D01*
X002839Y005747D01*
X002805Y005777D01*
X002773Y005809D01*
X002744Y005843D01*
X002751Y005849D01*
X002783Y005812D01*
X002817Y005778D01*
X002854Y005747D01*
X002894Y005719D01*
X002936Y005694D01*
X002979Y005673D01*
X003024Y005655D01*
X003071Y005641D01*
X003118Y005631D01*
X003167Y005624D01*
X003215Y005622D01*
X003215Y005631D01*
X003167Y005633D01*
X003120Y005640D01*
X003073Y005650D01*
X003027Y005663D01*
X002983Y005681D01*
X002940Y005702D01*
X002899Y005726D01*
X002860Y005754D01*
X002823Y005785D01*
X002789Y005818D01*
X002758Y005854D01*
X002765Y005860D01*
X002796Y005824D01*
X002829Y005791D01*
X002865Y005761D01*
X002904Y005734D01*
X002944Y005710D01*
X002987Y005689D01*
X003030Y005672D01*
X003075Y005658D01*
X003121Y005648D01*
X003168Y005642D01*
X003215Y005640D01*
D13*
X010006Y003114D02*
X010006Y002326D01*
X010547Y002720D01*
X010006Y003114D01*
X016893Y009220D02*
X017434Y009614D01*
X017434Y008826D01*
X016893Y009220D01*
X016086Y011214D02*
X016086Y015226D01*
D14*
X015790Y014560D03*
X015790Y013890D03*
X015790Y013220D03*
X015790Y012550D03*
X015790Y011880D03*
D15*
X015818Y010442D02*
X018622Y010442D01*
X018622Y007998D02*
X015818Y007998D01*
X017047Y007700D02*
X017047Y007240D01*
X017200Y007240D02*
X016893Y007240D01*
X017200Y007547D02*
X017047Y007700D01*
X017353Y007624D02*
X017353Y007317D01*
X017430Y007240D01*
X017660Y007240D01*
X017660Y007700D01*
X017430Y007700D01*
X017353Y007624D01*
X017834Y005334D02*
X015511Y005334D01*
X014606Y004429D01*
X014606Y004074D01*
X014606Y003366D02*
X014606Y003011D01*
X015511Y002106D01*
X017834Y002106D01*
X017834Y003366D01*
X017834Y004074D02*
X017834Y005334D01*
X017736Y004074D02*
X017716Y004151D01*
X017693Y004226D01*
X017665Y004300D01*
X017634Y004372D01*
X017599Y004443D01*
X017561Y004512D01*
X017519Y004578D01*
X017474Y004643D01*
X017426Y004705D01*
X017374Y004765D01*
X017320Y004822D01*
X017263Y004876D01*
X017203Y004928D01*
X017141Y004976D01*
X017076Y005021D01*
X017009Y005062D01*
X016940Y005100D01*
X016869Y005135D01*
X016797Y005166D01*
X016723Y005194D01*
X016648Y005217D01*
X016572Y005237D01*
X016494Y005253D01*
X016416Y005265D01*
X016338Y005273D01*
X016259Y005277D01*
X016181Y005277D01*
X016102Y005273D01*
X016024Y005265D01*
X015946Y005253D01*
X015868Y005237D01*
X015792Y005217D01*
X015717Y005194D01*
X015643Y005166D01*
X015571Y005135D01*
X015500Y005100D01*
X015431Y005062D01*
X015364Y005021D01*
X015299Y004976D01*
X015237Y004928D01*
X015177Y004876D01*
X015120Y004822D01*
X015066Y004765D01*
X015014Y004705D01*
X014966Y004643D01*
X014921Y004578D01*
X014879Y004512D01*
X014841Y004443D01*
X014806Y004372D01*
X014775Y004300D01*
X014747Y004226D01*
X014724Y004151D01*
X014704Y004074D01*
X014704Y003366D02*
X014724Y003289D01*
X014747Y003214D01*
X014775Y003140D01*
X014806Y003068D01*
X014841Y002997D01*
X014879Y002928D01*
X014921Y002862D01*
X014966Y002797D01*
X015014Y002735D01*
X015066Y002675D01*
X015120Y002618D01*
X015177Y002564D01*
X015237Y002512D01*
X015299Y002464D01*
X015364Y002419D01*
X015431Y002378D01*
X015500Y002340D01*
X015571Y002305D01*
X015643Y002274D01*
X015717Y002246D01*
X015792Y002223D01*
X015868Y002203D01*
X015946Y002187D01*
X016024Y002175D01*
X016102Y002167D01*
X016181Y002163D01*
X016259Y002163D01*
X016338Y002167D01*
X016416Y002175D01*
X016494Y002187D01*
X016572Y002203D01*
X016648Y002223D01*
X016723Y002246D01*
X016797Y002274D01*
X016869Y002305D01*
X016940Y002340D01*
X017009Y002378D01*
X017076Y002419D01*
X017141Y002464D01*
X017203Y002512D01*
X017263Y002564D01*
X017320Y002618D01*
X017374Y002675D01*
X017426Y002735D01*
X017474Y002797D01*
X017519Y002862D01*
X017561Y002928D01*
X017599Y002997D01*
X017634Y003068D01*
X017665Y003140D01*
X017693Y003214D01*
X017716Y003289D01*
X017736Y003366D01*
X011622Y003942D02*
X008818Y003942D01*
X009893Y004240D02*
X010200Y004240D01*
X009893Y004547D01*
X009893Y004624D01*
X009970Y004700D01*
X010123Y004700D01*
X010200Y004624D01*
X010353Y004624D02*
X010430Y004700D01*
X010660Y004700D01*
X010660Y004240D01*
X010430Y004240D01*
X010353Y004317D01*
X010353Y004624D01*
X011622Y001498D02*
X008818Y001498D01*
X015435Y015990D02*
X015282Y016143D01*
X015282Y016450D01*
X015589Y016450D02*
X015589Y016143D01*
X015435Y015990D01*
X015742Y016067D02*
X015819Y015990D01*
X015972Y015990D01*
X016049Y016067D01*
X016049Y016220D02*
X015896Y016297D01*
X015819Y016297D01*
X015742Y016220D01*
X015742Y016067D01*
X015742Y016450D02*
X016049Y016450D01*
X016049Y016220D01*
X016202Y016220D02*
X016509Y016220D01*
X016663Y016143D02*
X016740Y016220D01*
X016970Y016220D01*
X016970Y016067D01*
X016893Y015990D01*
X016740Y015990D01*
X016663Y016067D01*
X016663Y016143D01*
X016816Y016374D02*
X016663Y016450D01*
X016816Y016374D02*
X016970Y016220D01*
X017123Y016374D02*
X017430Y016067D01*
X017430Y015990D01*
X017584Y016067D02*
X017660Y015990D01*
X017814Y015990D01*
X017891Y016067D01*
X017891Y016220D02*
X017737Y016297D01*
X017660Y016297D01*
X017584Y016220D01*
X017584Y016067D01*
X017584Y016450D02*
X017891Y016450D01*
X017891Y016220D01*
X018044Y016297D02*
X018044Y016374D01*
X018121Y016450D01*
X018274Y016450D01*
X018351Y016374D01*
X018504Y016450D02*
X018504Y015990D01*
X018351Y015990D02*
X018044Y016297D01*
X018044Y015990D02*
X018351Y015990D01*
X018658Y016297D02*
X018504Y016450D01*
X018658Y016297D02*
X018811Y016450D01*
X018811Y015990D01*
X018965Y015990D02*
X019272Y015990D01*
X019272Y016450D01*
X019393Y016450D02*
X019393Y015990D01*
X019240Y015990D02*
X019547Y015990D01*
X019700Y016067D02*
X019777Y015990D01*
X019930Y015990D01*
X020007Y016067D01*
X020007Y016374D01*
X019930Y016450D01*
X019777Y016450D01*
X019700Y016374D01*
X019547Y016297D02*
X019393Y016450D01*
X020160Y016450D02*
X020314Y016450D01*
X020237Y016450D02*
X020237Y015990D01*
X020314Y015990D02*
X020160Y015990D01*
X017430Y016450D02*
X017123Y016450D01*
X017123Y016374D01*
D16*
X016639Y009220D03*
X010801Y002720D03*
D17*
X018323Y003137D02*
X018323Y003261D01*
X018385Y003322D01*
X018323Y003444D02*
X018323Y003691D01*
X018323Y003567D02*
X018694Y003567D01*
X018570Y003444D01*
X018632Y003322D02*
X018694Y003261D01*
X018694Y003137D01*
X018632Y003075D01*
X018385Y003075D01*
X018323Y003137D01*
X018335Y003876D02*
X018335Y004122D01*
X018335Y003999D02*
X018705Y003999D01*
X018582Y003876D01*
X018644Y004244D02*
X018705Y004306D01*
X018705Y004429D01*
X018644Y004491D01*
X018397Y004244D01*
X018335Y004306D01*
X018335Y004429D01*
X018397Y004491D01*
X018644Y004491D01*
X018644Y004612D02*
X018705Y004674D01*
X018705Y004797D01*
X018644Y004859D01*
X018397Y004612D01*
X018335Y004674D01*
X018335Y004797D01*
X018397Y004859D01*
X018644Y004859D01*
X018582Y004981D02*
X018397Y004981D01*
X018335Y005042D01*
X018335Y005227D01*
X018582Y005227D01*
X018520Y005349D02*
X018520Y005472D01*
X018644Y005411D02*
X018705Y005472D01*
X018644Y005411D02*
X018335Y005411D01*
X018397Y004612D02*
X018644Y004612D01*
X018644Y004244D02*
X018397Y004244D01*
D18*
X005720Y011820D02*
X005620Y011720D01*
X005620Y013020D01*
X005720Y013020D01*
X005720Y011820D01*
X005620Y011720D02*
X005220Y011320D01*
X004720Y011320D01*
X003670Y011320D02*
X002770Y011320D01*
X001720Y011320D02*
X001220Y011320D01*
X000820Y011720D01*
X000720Y011820D01*
X000720Y013020D01*
X000820Y013020D01*
X000820Y013320D01*
X000670Y013320D01*
X000670Y014120D01*
X000820Y014120D01*
X000820Y014420D01*
X000720Y014420D01*
X000720Y015620D01*
X000820Y015720D01*
X001220Y016120D01*
X001720Y016120D01*
X000820Y015720D02*
X000820Y014420D01*
X000820Y014120D02*
X000820Y013320D01*
X000820Y013020D02*
X000820Y011720D01*
X002470Y012970D02*
X003970Y012970D01*
X003970Y014470D01*
X002470Y014470D01*
X002470Y012970D01*
X001820Y013720D02*
X001822Y013795D01*
X001828Y013869D01*
X001838Y013943D01*
X001852Y014016D01*
X001869Y014088D01*
X001891Y014160D01*
X001916Y014230D01*
X001945Y014298D01*
X001978Y014366D01*
X002014Y014431D01*
X002053Y014494D01*
X002096Y014555D01*
X002142Y014614D01*
X002191Y014670D01*
X002243Y014723D01*
X002298Y014774D01*
X002355Y014821D01*
X002415Y014866D01*
X002477Y014907D01*
X002542Y014945D01*
X002608Y014979D01*
X002676Y015010D01*
X002745Y015037D01*
X002816Y015060D01*
X002888Y015080D01*
X002961Y015096D01*
X003034Y015108D01*
X003108Y015116D01*
X003183Y015120D01*
X003257Y015120D01*
X003332Y015116D01*
X003406Y015108D01*
X003479Y015096D01*
X003552Y015080D01*
X003624Y015060D01*
X003695Y015037D01*
X003764Y015010D01*
X003832Y014979D01*
X003898Y014945D01*
X003963Y014907D01*
X004025Y014866D01*
X004085Y014821D01*
X004142Y014774D01*
X004197Y014723D01*
X004249Y014670D01*
X004298Y014614D01*
X004344Y014555D01*
X004387Y014494D01*
X004426Y014431D01*
X004462Y014366D01*
X004495Y014298D01*
X004524Y014230D01*
X004549Y014160D01*
X004571Y014088D01*
X004588Y014016D01*
X004602Y013943D01*
X004612Y013869D01*
X004618Y013795D01*
X004620Y013720D01*
X004618Y013645D01*
X004612Y013571D01*
X004602Y013497D01*
X004588Y013424D01*
X004571Y013352D01*
X004549Y013280D01*
X004524Y013210D01*
X004495Y013142D01*
X004462Y013074D01*
X004426Y013009D01*
X004387Y012946D01*
X004344Y012885D01*
X004298Y012826D01*
X004249Y012770D01*
X004197Y012717D01*
X004142Y012666D01*
X004085Y012619D01*
X004025Y012574D01*
X003963Y012533D01*
X003898Y012495D01*
X003832Y012461D01*
X003764Y012430D01*
X003695Y012403D01*
X003624Y012380D01*
X003552Y012360D01*
X003479Y012344D01*
X003406Y012332D01*
X003332Y012324D01*
X003257Y012320D01*
X003183Y012320D01*
X003108Y012324D01*
X003034Y012332D01*
X002961Y012344D01*
X002888Y012360D01*
X002816Y012380D01*
X002745Y012403D01*
X002676Y012430D01*
X002608Y012461D01*
X002542Y012495D01*
X002477Y012533D01*
X002415Y012574D01*
X002355Y012619D01*
X002298Y012666D01*
X002243Y012717D01*
X002191Y012770D01*
X002142Y012826D01*
X002096Y012885D01*
X002053Y012946D01*
X002014Y013009D01*
X001978Y013074D01*
X001945Y013142D01*
X001916Y013210D01*
X001891Y013280D01*
X001869Y013352D01*
X001852Y013424D01*
X001838Y013497D01*
X001828Y013571D01*
X001822Y013645D01*
X001820Y013720D01*
X002770Y016120D02*
X003670Y016120D01*
X004720Y016120D02*
X005220Y016120D01*
X005620Y015720D01*
X005720Y015620D01*
X005720Y014420D01*
X005620Y014420D01*
X005620Y014120D01*
X005620Y013320D01*
X005620Y013020D01*
X005620Y013320D02*
X005770Y013320D01*
X005770Y014120D01*
X005620Y014120D01*
X005620Y014420D02*
X005620Y015720D01*
D19*
X003870Y014370D02*
X002570Y014370D01*
X002570Y013070D01*
X003870Y013070D01*
X003870Y014370D01*
X002920Y013720D02*
X002922Y013754D01*
X002928Y013788D01*
X002937Y013821D01*
X002951Y013852D01*
X002968Y013882D01*
X002988Y013910D01*
X003011Y013935D01*
X003037Y013958D01*
X003065Y013977D01*
X003095Y013993D01*
X003127Y014005D01*
X003160Y014014D01*
X003194Y014019D01*
X003229Y014020D01*
X003263Y014017D01*
X003296Y014010D01*
X003329Y014000D01*
X003360Y013985D01*
X003389Y013968D01*
X003416Y013947D01*
X003441Y013923D01*
X003463Y013896D01*
X003481Y013868D01*
X003496Y013837D01*
X003508Y013805D01*
X003516Y013771D01*
X003520Y013737D01*
X003520Y013703D01*
X003516Y013669D01*
X003508Y013635D01*
X003496Y013603D01*
X003481Y013572D01*
X003463Y013544D01*
X003441Y013517D01*
X003416Y013493D01*
X003389Y013472D01*
X003360Y013455D01*
X003329Y013440D01*
X003296Y013430D01*
X003263Y013423D01*
X003229Y013420D01*
X003194Y013421D01*
X003160Y013426D01*
X003127Y013435D01*
X003095Y013447D01*
X003065Y013463D01*
X003037Y013482D01*
X003011Y013505D01*
X002988Y013530D01*
X002968Y013558D01*
X002951Y013588D01*
X002937Y013619D01*
X002928Y013652D01*
X002922Y013686D01*
X002920Y013720D01*
X002820Y013720D02*
X002822Y013760D01*
X002828Y013799D01*
X002838Y013838D01*
X002851Y013875D01*
X002869Y013911D01*
X002890Y013945D01*
X002914Y013977D01*
X002941Y014006D01*
X002971Y014033D01*
X003003Y014056D01*
X003038Y014076D01*
X003074Y014092D01*
X003112Y014105D01*
X003151Y014114D01*
X003190Y014119D01*
X003230Y014120D01*
X003270Y014117D01*
X003309Y014110D01*
X003347Y014099D01*
X003385Y014085D01*
X003420Y014066D01*
X003453Y014045D01*
X003485Y014020D01*
X003513Y013992D01*
X003539Y013962D01*
X003561Y013929D01*
X003580Y013894D01*
X003596Y013857D01*
X003608Y013819D01*
X003616Y013780D01*
X003620Y013740D01*
X003620Y013700D01*
X003616Y013660D01*
X003608Y013621D01*
X003596Y013583D01*
X003580Y013546D01*
X003561Y013511D01*
X003539Y013478D01*
X003513Y013448D01*
X003485Y013420D01*
X003453Y013395D01*
X003420Y013374D01*
X003385Y013355D01*
X003347Y013341D01*
X003309Y013330D01*
X003270Y013323D01*
X003230Y013320D01*
X003190Y013321D01*
X003151Y013326D01*
X003112Y013335D01*
X003074Y013348D01*
X003038Y013364D01*
X003003Y013384D01*
X002971Y013407D01*
X002941Y013434D01*
X002914Y013463D01*
X002890Y013495D01*
X002869Y013529D01*
X002851Y013565D01*
X002838Y013602D01*
X002828Y013641D01*
X002822Y013680D01*
X002820Y013720D01*
D20*
X000820Y012395D03*
X000820Y015045D03*
X005620Y015045D03*
X005620Y012395D03*
M02*
