%
M48
M72
T01C0.0236
T02C0.0315
T03C0.0320
T04C0.0354
T05C0.0470
T06C0.0472
T07C0.0550
T08C0.0630
T09C0.0710
%
T01
X12720Y19220
X8220Y12720
X8220Y10720
X8720Y11220
X8720Y13220
X12720Y18220
X13720Y12220
X16720Y8720
T02
X15220Y20220
X15220Y19220
X15220Y18220
X15220Y17220
X16220Y17220
X16220Y18220
X16220Y19220
X16220Y20220
X5970Y9095
X5970Y10095
X5970Y11095
X5970Y12095
X5970Y13095
T03
X3720Y6220
X2720Y6220
X3720Y8720
X2720Y8720
T04
X7220Y3720
X7220Y4720
X7220Y5720
X7220Y6720
X7220Y7720
X7220Y8720
X7220Y9720
X7220Y10720
X7220Y11720
X7220Y12720
X7220Y13720
X7220Y14720
X7220Y15720
X7220Y16720
X7220Y17720
X7220Y18720
X7220Y19720
X13220Y3720
X13220Y4720
X13220Y5720
X13220Y6720
X13220Y7720
X13220Y8720
X13220Y9720
X13220Y10720
X13220Y11720
X13220Y12720
X13220Y13720
X13220Y14720
X13220Y15720
X13220Y16720
X13220Y17720
X13220Y18720
X13220Y19720
T05
X4200Y16180
X4200Y11260
X2240Y16180
X2240Y11260
T06
X7220Y2720
X13220Y2720
X7220Y20720
X13220Y20720
T07
X4220Y2220
X2220Y2220
T08
X5970Y7158
X5970Y15032
X19750Y2434
X19750Y19756
T09
X4990Y13720
X1450Y13720
M30
