G75*
%MOIN*%
%OFA0B0*%
%FSLAX24Y24*%
%IPPOS*%
%LPD*%
%AMOC8*
5,1,8,0,0,1.08239X$1,22.5*
%
%ADD10C,0.0000*%
%ADD11C,0.0554*%
%ADD12R,0.0515X0.0515*%
%ADD13OC8,0.0515*%
%ADD14C,0.0515*%
%ADD15OC8,0.0660*%
%ADD16R,0.4098X0.4252*%
%ADD17R,0.0850X0.0420*%
%ADD18R,0.1102X0.1496*%
%ADD19OC8,0.1500*%
%ADD20R,0.1496X0.0551*%
%ADD21C,0.0705*%
%ADD22C,0.0240*%
%ADD23C,0.0500*%
%ADD24C,0.0356*%
D10*
X001220Y001220D02*
X001220Y020905D01*
X020905Y020905D01*
X020905Y001220D01*
X001220Y001220D01*
X006984Y002720D02*
X006986Y002750D01*
X006992Y002780D01*
X007001Y002809D01*
X007014Y002836D01*
X007031Y002861D01*
X007050Y002884D01*
X007073Y002905D01*
X007098Y002922D01*
X007124Y002936D01*
X007153Y002946D01*
X007182Y002953D01*
X007212Y002956D01*
X007243Y002955D01*
X007273Y002950D01*
X007302Y002941D01*
X007329Y002929D01*
X007355Y002914D01*
X007379Y002895D01*
X007400Y002873D01*
X007418Y002849D01*
X007433Y002822D01*
X007444Y002794D01*
X007452Y002765D01*
X007456Y002735D01*
X007456Y002705D01*
X007452Y002675D01*
X007444Y002646D01*
X007433Y002618D01*
X007418Y002591D01*
X007400Y002567D01*
X007379Y002545D01*
X007355Y002526D01*
X007329Y002511D01*
X007302Y002499D01*
X007273Y002490D01*
X007243Y002485D01*
X007212Y002484D01*
X007182Y002487D01*
X007153Y002494D01*
X007124Y002504D01*
X007098Y002518D01*
X007073Y002535D01*
X007050Y002556D01*
X007031Y002579D01*
X007014Y002604D01*
X007001Y002631D01*
X006992Y002660D01*
X006986Y002690D01*
X006984Y002720D01*
X005655Y007158D02*
X005657Y007193D01*
X005663Y007228D01*
X005673Y007262D01*
X005686Y007295D01*
X005703Y007326D01*
X005724Y007354D01*
X005747Y007381D01*
X005774Y007404D01*
X005802Y007425D01*
X005833Y007442D01*
X005866Y007455D01*
X005900Y007465D01*
X005935Y007471D01*
X005970Y007473D01*
X006005Y007471D01*
X006040Y007465D01*
X006074Y007455D01*
X006107Y007442D01*
X006138Y007425D01*
X006166Y007404D01*
X006193Y007381D01*
X006216Y007354D01*
X006237Y007326D01*
X006254Y007295D01*
X006267Y007262D01*
X006277Y007228D01*
X006283Y007193D01*
X006285Y007158D01*
X006283Y007123D01*
X006277Y007088D01*
X006267Y007054D01*
X006254Y007021D01*
X006237Y006990D01*
X006216Y006962D01*
X006193Y006935D01*
X006166Y006912D01*
X006138Y006891D01*
X006107Y006874D01*
X006074Y006861D01*
X006040Y006851D01*
X006005Y006845D01*
X005970Y006843D01*
X005935Y006845D01*
X005900Y006851D01*
X005866Y006861D01*
X005833Y006874D01*
X005802Y006891D01*
X005774Y006912D01*
X005747Y006935D01*
X005724Y006962D01*
X005703Y006990D01*
X005686Y007021D01*
X005673Y007054D01*
X005663Y007088D01*
X005657Y007123D01*
X005655Y007158D01*
X012984Y002720D02*
X012986Y002750D01*
X012992Y002780D01*
X013001Y002809D01*
X013014Y002836D01*
X013031Y002861D01*
X013050Y002884D01*
X013073Y002905D01*
X013098Y002922D01*
X013124Y002936D01*
X013153Y002946D01*
X013182Y002953D01*
X013212Y002956D01*
X013243Y002955D01*
X013273Y002950D01*
X013302Y002941D01*
X013329Y002929D01*
X013355Y002914D01*
X013379Y002895D01*
X013400Y002873D01*
X013418Y002849D01*
X013433Y002822D01*
X013444Y002794D01*
X013452Y002765D01*
X013456Y002735D01*
X013456Y002705D01*
X013452Y002675D01*
X013444Y002646D01*
X013433Y002618D01*
X013418Y002591D01*
X013400Y002567D01*
X013379Y002545D01*
X013355Y002526D01*
X013329Y002511D01*
X013302Y002499D01*
X013273Y002490D01*
X013243Y002485D01*
X013212Y002484D01*
X013182Y002487D01*
X013153Y002494D01*
X013124Y002504D01*
X013098Y002518D01*
X013073Y002535D01*
X013050Y002556D01*
X013031Y002579D01*
X013014Y002604D01*
X013001Y002631D01*
X012992Y002660D01*
X012986Y002690D01*
X012984Y002720D01*
X019435Y002434D02*
X019437Y002469D01*
X019443Y002504D01*
X019453Y002538D01*
X019466Y002571D01*
X019483Y002602D01*
X019504Y002630D01*
X019527Y002657D01*
X019554Y002680D01*
X019582Y002701D01*
X019613Y002718D01*
X019646Y002731D01*
X019680Y002741D01*
X019715Y002747D01*
X019750Y002749D01*
X019785Y002747D01*
X019820Y002741D01*
X019854Y002731D01*
X019887Y002718D01*
X019918Y002701D01*
X019946Y002680D01*
X019973Y002657D01*
X019996Y002630D01*
X020017Y002602D01*
X020034Y002571D01*
X020047Y002538D01*
X020057Y002504D01*
X020063Y002469D01*
X020065Y002434D01*
X020063Y002399D01*
X020057Y002364D01*
X020047Y002330D01*
X020034Y002297D01*
X020017Y002266D01*
X019996Y002238D01*
X019973Y002211D01*
X019946Y002188D01*
X019918Y002167D01*
X019887Y002150D01*
X019854Y002137D01*
X019820Y002127D01*
X019785Y002121D01*
X019750Y002119D01*
X019715Y002121D01*
X019680Y002127D01*
X019646Y002137D01*
X019613Y002150D01*
X019582Y002167D01*
X019554Y002188D01*
X019527Y002211D01*
X019504Y002238D01*
X019483Y002266D01*
X019466Y002297D01*
X019453Y002330D01*
X019443Y002364D01*
X019437Y002399D01*
X019435Y002434D01*
X004635Y013720D02*
X004637Y013757D01*
X004643Y013794D01*
X004652Y013830D01*
X004666Y013864D01*
X004683Y013897D01*
X004703Y013929D01*
X004726Y013958D01*
X004752Y013984D01*
X004781Y014007D01*
X004812Y014027D01*
X004846Y014044D01*
X004880Y014058D01*
X004916Y014067D01*
X004953Y014073D01*
X004990Y014075D01*
X005027Y014073D01*
X005064Y014067D01*
X005100Y014058D01*
X005134Y014044D01*
X005167Y014027D01*
X005199Y014007D01*
X005228Y013984D01*
X005254Y013958D01*
X005277Y013929D01*
X005297Y013898D01*
X005314Y013864D01*
X005328Y013830D01*
X005337Y013794D01*
X005343Y013757D01*
X005345Y013720D01*
X005343Y013683D01*
X005337Y013646D01*
X005328Y013610D01*
X005314Y013576D01*
X005297Y013543D01*
X005277Y013511D01*
X005254Y013482D01*
X005228Y013456D01*
X005199Y013433D01*
X005168Y013413D01*
X005134Y013396D01*
X005100Y013382D01*
X005064Y013373D01*
X005027Y013367D01*
X004990Y013365D01*
X004953Y013367D01*
X004916Y013373D01*
X004880Y013382D01*
X004846Y013396D01*
X004813Y013413D01*
X004781Y013433D01*
X004752Y013456D01*
X004726Y013482D01*
X004703Y013511D01*
X004683Y013542D01*
X004666Y013576D01*
X004652Y013610D01*
X004643Y013646D01*
X004637Y013683D01*
X004635Y013720D01*
X005655Y015032D02*
X005657Y015067D01*
X005663Y015102D01*
X005673Y015136D01*
X005686Y015169D01*
X005703Y015200D01*
X005724Y015228D01*
X005747Y015255D01*
X005774Y015278D01*
X005802Y015299D01*
X005833Y015316D01*
X005866Y015329D01*
X005900Y015339D01*
X005935Y015345D01*
X005970Y015347D01*
X006005Y015345D01*
X006040Y015339D01*
X006074Y015329D01*
X006107Y015316D01*
X006138Y015299D01*
X006166Y015278D01*
X006193Y015255D01*
X006216Y015228D01*
X006237Y015200D01*
X006254Y015169D01*
X006267Y015136D01*
X006277Y015102D01*
X006283Y015067D01*
X006285Y015032D01*
X006283Y014997D01*
X006277Y014962D01*
X006267Y014928D01*
X006254Y014895D01*
X006237Y014864D01*
X006216Y014836D01*
X006193Y014809D01*
X006166Y014786D01*
X006138Y014765D01*
X006107Y014748D01*
X006074Y014735D01*
X006040Y014725D01*
X006005Y014719D01*
X005970Y014717D01*
X005935Y014719D01*
X005900Y014725D01*
X005866Y014735D01*
X005833Y014748D01*
X005802Y014765D01*
X005774Y014786D01*
X005747Y014809D01*
X005724Y014836D01*
X005703Y014864D01*
X005686Y014895D01*
X005673Y014928D01*
X005663Y014962D01*
X005657Y014997D01*
X005655Y015032D01*
X001095Y013720D02*
X001097Y013757D01*
X001103Y013794D01*
X001112Y013830D01*
X001126Y013864D01*
X001143Y013897D01*
X001163Y013929D01*
X001186Y013958D01*
X001212Y013984D01*
X001241Y014007D01*
X001272Y014027D01*
X001306Y014044D01*
X001340Y014058D01*
X001376Y014067D01*
X001413Y014073D01*
X001450Y014075D01*
X001487Y014073D01*
X001524Y014067D01*
X001560Y014058D01*
X001594Y014044D01*
X001627Y014027D01*
X001659Y014007D01*
X001688Y013984D01*
X001714Y013958D01*
X001737Y013929D01*
X001757Y013898D01*
X001774Y013864D01*
X001788Y013830D01*
X001797Y013794D01*
X001803Y013757D01*
X001805Y013720D01*
X001803Y013683D01*
X001797Y013646D01*
X001788Y013610D01*
X001774Y013576D01*
X001757Y013543D01*
X001737Y013511D01*
X001714Y013482D01*
X001688Y013456D01*
X001659Y013433D01*
X001628Y013413D01*
X001594Y013396D01*
X001560Y013382D01*
X001524Y013373D01*
X001487Y013367D01*
X001450Y013365D01*
X001413Y013367D01*
X001376Y013373D01*
X001340Y013382D01*
X001306Y013396D01*
X001273Y013413D01*
X001241Y013433D01*
X001212Y013456D01*
X001186Y013482D01*
X001163Y013511D01*
X001143Y013542D01*
X001126Y013576D01*
X001112Y013610D01*
X001103Y013646D01*
X001097Y013683D01*
X001095Y013720D01*
X006984Y020720D02*
X006986Y020750D01*
X006992Y020780D01*
X007001Y020809D01*
X007014Y020836D01*
X007031Y020861D01*
X007050Y020884D01*
X007073Y020905D01*
X007098Y020922D01*
X007124Y020936D01*
X007153Y020946D01*
X007182Y020953D01*
X007212Y020956D01*
X007243Y020955D01*
X007273Y020950D01*
X007302Y020941D01*
X007329Y020929D01*
X007355Y020914D01*
X007379Y020895D01*
X007400Y020873D01*
X007418Y020849D01*
X007433Y020822D01*
X007444Y020794D01*
X007452Y020765D01*
X007456Y020735D01*
X007456Y020705D01*
X007452Y020675D01*
X007444Y020646D01*
X007433Y020618D01*
X007418Y020591D01*
X007400Y020567D01*
X007379Y020545D01*
X007355Y020526D01*
X007329Y020511D01*
X007302Y020499D01*
X007273Y020490D01*
X007243Y020485D01*
X007212Y020484D01*
X007182Y020487D01*
X007153Y020494D01*
X007124Y020504D01*
X007098Y020518D01*
X007073Y020535D01*
X007050Y020556D01*
X007031Y020579D01*
X007014Y020604D01*
X007001Y020631D01*
X006992Y020660D01*
X006986Y020690D01*
X006984Y020720D01*
X012984Y020720D02*
X012986Y020750D01*
X012992Y020780D01*
X013001Y020809D01*
X013014Y020836D01*
X013031Y020861D01*
X013050Y020884D01*
X013073Y020905D01*
X013098Y020922D01*
X013124Y020936D01*
X013153Y020946D01*
X013182Y020953D01*
X013212Y020956D01*
X013243Y020955D01*
X013273Y020950D01*
X013302Y020941D01*
X013329Y020929D01*
X013355Y020914D01*
X013379Y020895D01*
X013400Y020873D01*
X013418Y020849D01*
X013433Y020822D01*
X013444Y020794D01*
X013452Y020765D01*
X013456Y020735D01*
X013456Y020705D01*
X013452Y020675D01*
X013444Y020646D01*
X013433Y020618D01*
X013418Y020591D01*
X013400Y020567D01*
X013379Y020545D01*
X013355Y020526D01*
X013329Y020511D01*
X013302Y020499D01*
X013273Y020490D01*
X013243Y020485D01*
X013212Y020484D01*
X013182Y020487D01*
X013153Y020494D01*
X013124Y020504D01*
X013098Y020518D01*
X013073Y020535D01*
X013050Y020556D01*
X013031Y020579D01*
X013014Y020604D01*
X013001Y020631D01*
X012992Y020660D01*
X012986Y020690D01*
X012984Y020720D01*
X019435Y019756D02*
X019437Y019791D01*
X019443Y019826D01*
X019453Y019860D01*
X019466Y019893D01*
X019483Y019924D01*
X019504Y019952D01*
X019527Y019979D01*
X019554Y020002D01*
X019582Y020023D01*
X019613Y020040D01*
X019646Y020053D01*
X019680Y020063D01*
X019715Y020069D01*
X019750Y020071D01*
X019785Y020069D01*
X019820Y020063D01*
X019854Y020053D01*
X019887Y020040D01*
X019918Y020023D01*
X019946Y020002D01*
X019973Y019979D01*
X019996Y019952D01*
X020017Y019924D01*
X020034Y019893D01*
X020047Y019860D01*
X020057Y019826D01*
X020063Y019791D01*
X020065Y019756D01*
X020063Y019721D01*
X020057Y019686D01*
X020047Y019652D01*
X020034Y019619D01*
X020017Y019588D01*
X019996Y019560D01*
X019973Y019533D01*
X019946Y019510D01*
X019918Y019489D01*
X019887Y019472D01*
X019854Y019459D01*
X019820Y019449D01*
X019785Y019443D01*
X019750Y019441D01*
X019715Y019443D01*
X019680Y019449D01*
X019646Y019459D01*
X019613Y019472D01*
X019582Y019489D01*
X019554Y019510D01*
X019527Y019533D01*
X019504Y019560D01*
X019483Y019588D01*
X019466Y019619D01*
X019453Y019652D01*
X019443Y019686D01*
X019437Y019721D01*
X019435Y019756D01*
D11*
X013220Y019720D03*
X013220Y018720D03*
X013220Y017720D03*
X013220Y016720D03*
X013220Y015720D03*
X013220Y014720D03*
X013220Y013720D03*
X013220Y012720D03*
X013220Y011720D03*
X013220Y010720D03*
X013220Y009720D03*
X013220Y008720D03*
X013220Y007720D03*
X013220Y006720D03*
X013220Y005720D03*
X013220Y004720D03*
X013220Y003720D03*
X007220Y003720D03*
X007220Y004720D03*
X007220Y005720D03*
X007220Y006720D03*
X007220Y007720D03*
X007220Y008720D03*
X007220Y009720D03*
X007220Y010720D03*
X007220Y011720D03*
X007220Y012720D03*
X007220Y013720D03*
X007220Y014720D03*
X007220Y015720D03*
X007220Y016720D03*
X007220Y017720D03*
X007220Y018720D03*
X007220Y019720D03*
D12*
X015220Y020220D03*
X005970Y009095D03*
D13*
X015220Y017220D03*
X016220Y017220D03*
X016220Y018220D03*
X016220Y019220D03*
X015220Y019220D03*
X015220Y018220D03*
X016220Y020220D03*
D14*
X005970Y013095D03*
X005970Y012095D03*
X005970Y011095D03*
X005970Y010095D03*
D15*
X003720Y008720D03*
X002720Y008720D03*
X002720Y006220D03*
X003720Y006220D03*
D16*
X018220Y013220D03*
D17*
X014940Y013220D03*
X014940Y012550D03*
X014940Y011880D03*
X014940Y013890D03*
X014940Y014560D03*
D18*
X015763Y009220D03*
X018677Y009220D03*
X011677Y002720D03*
X008763Y002720D03*
D19*
X004220Y002220D03*
X002220Y002220D03*
D20*
X015039Y003720D03*
X017401Y003720D03*
D21*
X004200Y010908D02*
X004200Y011613D01*
X002240Y011613D02*
X002240Y010908D01*
X002240Y015828D02*
X002240Y016533D01*
X004200Y016533D02*
X004200Y015828D01*
D22*
X003668Y015769D02*
X002911Y015769D01*
X002912Y015783D02*
X002912Y016180D01*
X002912Y016577D01*
X002901Y016664D01*
X002878Y016749D01*
X002844Y016831D01*
X002800Y016907D01*
X002747Y016977D01*
X002684Y017039D01*
X002614Y017093D01*
X002538Y017137D01*
X002457Y017171D01*
X002371Y017193D01*
X002284Y017205D01*
X002240Y017205D01*
X002240Y016180D01*
X002240Y016180D01*
X002912Y016180D01*
X002240Y016180D01*
X002240Y016180D01*
X002240Y016180D01*
X001568Y016180D01*
X001568Y015783D01*
X001579Y015696D01*
X001602Y015611D01*
X001636Y015529D01*
X001680Y015453D01*
X001733Y015383D01*
X001796Y015321D01*
X001866Y015267D01*
X001942Y015223D01*
X002023Y015189D01*
X002109Y015167D01*
X002196Y015155D01*
X002240Y015155D01*
X002284Y015155D01*
X002371Y015167D01*
X002457Y015189D01*
X002538Y015223D01*
X002614Y015267D01*
X002684Y015321D01*
X002747Y015383D01*
X002800Y015453D01*
X002844Y015529D01*
X002878Y015611D01*
X002901Y015696D01*
X002912Y015783D01*
X002912Y016007D02*
X003668Y016007D01*
X003668Y015722D02*
X003749Y015526D01*
X003898Y015376D01*
X004094Y015295D01*
X004306Y015295D01*
X004417Y015341D01*
X004050Y014974D01*
X003966Y014890D01*
X003920Y014780D01*
X003920Y013160D01*
X003966Y013050D01*
X004670Y012346D01*
X004670Y011869D01*
X004651Y011914D01*
X004502Y012064D01*
X004306Y012145D01*
X004094Y012145D01*
X003898Y012064D01*
X003749Y011914D01*
X003668Y011718D01*
X003668Y010802D01*
X003749Y010606D01*
X003898Y010456D01*
X004094Y010375D01*
X004306Y010375D01*
X004502Y010456D01*
X004651Y010606D01*
X004732Y010802D01*
X004732Y010908D01*
X005533Y010108D01*
X005533Y010008D01*
X005599Y009847D01*
X005722Y009724D01*
X005883Y009658D01*
X006057Y009658D01*
X006218Y009724D01*
X006341Y009847D01*
X006407Y010008D01*
X006407Y010182D01*
X006341Y010343D01*
X006218Y010466D01*
X006057Y010532D01*
X005957Y010532D01*
X005796Y010694D01*
X005883Y010658D01*
X006057Y010658D01*
X006218Y010724D01*
X006341Y010847D01*
X006407Y011008D01*
X006407Y011182D01*
X006341Y011343D01*
X006218Y011466D01*
X006072Y011526D01*
X006105Y011532D01*
X006192Y011560D01*
X006273Y011601D01*
X006346Y011655D01*
X006410Y011719D01*
X006464Y011792D01*
X006505Y011873D01*
X006533Y011960D01*
X006547Y012050D01*
X006547Y012095D01*
X005970Y012095D01*
X006547Y012095D01*
X006547Y012140D01*
X006533Y012230D01*
X006505Y012317D01*
X006464Y012398D01*
X006410Y012471D01*
X006346Y012535D01*
X006273Y012589D01*
X006192Y012630D01*
X006105Y012658D01*
X006072Y012664D01*
X006218Y012724D01*
X006341Y012847D01*
X006407Y013008D01*
X006407Y013182D01*
X006341Y013343D01*
X006218Y013466D01*
X006057Y013532D01*
X005883Y013532D01*
X005722Y013466D01*
X005599Y013343D01*
X005533Y013182D01*
X005533Y013008D01*
X005599Y012847D01*
X005722Y012724D01*
X005868Y012664D01*
X005835Y012658D01*
X005748Y012630D01*
X005667Y012589D01*
X005594Y012535D01*
X005530Y012471D01*
X005476Y012398D01*
X005435Y012317D01*
X005407Y012230D01*
X005393Y012140D01*
X005393Y012095D01*
X005970Y012095D01*
X005970Y012095D01*
X005970Y012095D01*
X005393Y012095D01*
X005393Y012050D01*
X005407Y011960D01*
X005435Y011873D01*
X005476Y011792D01*
X005530Y011719D01*
X005594Y011655D01*
X005667Y011601D01*
X005748Y011560D01*
X005835Y011532D01*
X005868Y011526D01*
X005722Y011466D01*
X005599Y011343D01*
X005533Y011182D01*
X005533Y011008D01*
X005569Y010921D01*
X005270Y011219D01*
X005270Y012530D01*
X005224Y012640D01*
X005140Y012724D01*
X004520Y013344D01*
X004520Y013377D01*
X004664Y013233D01*
X004876Y013145D01*
X005104Y013145D01*
X005316Y013233D01*
X005477Y013394D01*
X005565Y013606D01*
X005565Y013834D01*
X005477Y014046D01*
X005316Y014207D01*
X005104Y014295D01*
X004876Y014295D01*
X004664Y014207D01*
X004520Y014063D01*
X004520Y014596D01*
X004962Y015038D01*
X004962Y014844D01*
X005098Y014492D01*
X005352Y014214D01*
X005352Y014214D01*
X005689Y014046D01*
X005689Y014046D01*
X006065Y014011D01*
X006427Y014114D01*
X006728Y014341D01*
X006741Y014363D01*
X006765Y014331D01*
X006831Y014265D01*
X006907Y014209D01*
X006991Y014167D01*
X007054Y014146D01*
X006961Y014108D01*
X006832Y013979D01*
X006763Y013811D01*
X006763Y013629D01*
X006832Y013461D01*
X006961Y013332D01*
X007129Y013263D01*
X007311Y013263D01*
X007479Y013332D01*
X007608Y013461D01*
X007677Y013629D01*
X007677Y013811D01*
X007608Y013979D01*
X007479Y014108D01*
X007386Y014146D01*
X007449Y014167D01*
X007533Y014209D01*
X007609Y014265D01*
X007675Y014331D01*
X007731Y014407D01*
X007773Y014491D01*
X007802Y014580D01*
X007817Y014673D01*
X007817Y014720D01*
X007817Y014767D01*
X007802Y014860D01*
X007773Y014949D01*
X007731Y015033D01*
X007675Y015109D01*
X007609Y015175D01*
X007533Y015231D01*
X007449Y015273D01*
X007386Y015294D01*
X007479Y015332D01*
X007608Y015461D01*
X007677Y015629D01*
X007677Y015811D01*
X007608Y015979D01*
X007479Y016108D01*
X007311Y016177D01*
X007129Y016177D01*
X006961Y016108D01*
X006832Y015979D01*
X006763Y015811D01*
X006763Y015666D01*
X006728Y015723D01*
X006728Y015723D01*
X006728Y015723D01*
X006427Y015950D01*
X006065Y016053D01*
X006065Y016053D01*
X005689Y016018D01*
X005352Y015850D01*
X005270Y015760D01*
X005270Y015846D01*
X006844Y017420D01*
X006873Y017420D01*
X006961Y017332D01*
X007129Y017263D01*
X007311Y017263D01*
X007479Y017332D01*
X007608Y017461D01*
X007677Y017629D01*
X007677Y017811D01*
X007608Y017979D01*
X007479Y018108D01*
X007311Y018177D01*
X007129Y018177D01*
X006961Y018108D01*
X006873Y018020D01*
X006660Y018020D01*
X006550Y017974D01*
X004800Y016224D01*
X004732Y016157D01*
X004732Y016638D01*
X004651Y016834D01*
X004502Y016984D01*
X004306Y017065D01*
X004094Y017065D01*
X003898Y016984D01*
X003749Y016834D01*
X003668Y016638D01*
X003668Y015722D01*
X003747Y015530D02*
X002845Y015530D01*
X002646Y015292D02*
X004367Y015292D01*
X004129Y015053D02*
X001440Y015053D01*
X001440Y014815D02*
X003934Y014815D01*
X003920Y014576D02*
X001440Y014576D01*
X001440Y014338D02*
X003920Y014338D01*
X003920Y014099D02*
X001884Y014099D01*
X001937Y014046D02*
X001776Y014207D01*
X001564Y014295D01*
X001440Y014295D01*
X001440Y020685D01*
X006764Y020685D01*
X006764Y020629D01*
X006833Y020462D01*
X006962Y020333D01*
X007129Y020264D01*
X007311Y020264D01*
X007478Y020333D01*
X007607Y020462D01*
X007676Y020629D01*
X007676Y020685D01*
X012764Y020685D01*
X012764Y020629D01*
X012833Y020462D01*
X012962Y020333D01*
X013129Y020264D01*
X013311Y020264D01*
X013478Y020333D01*
X013607Y020462D01*
X013676Y020629D01*
X013676Y020685D01*
X014718Y020685D01*
X014714Y020681D01*
X014679Y020629D01*
X014655Y020571D01*
X014643Y020509D01*
X014643Y020220D01*
X015220Y020220D01*
X015220Y020220D01*
X014643Y020220D01*
X014643Y019931D01*
X014655Y019869D01*
X014679Y019811D01*
X014714Y019759D01*
X014759Y019714D01*
X014811Y019679D01*
X014869Y019655D01*
X014931Y019643D01*
X015024Y019643D01*
X014901Y019520D01*
X013632Y019520D01*
X013677Y019629D01*
X013677Y019811D01*
X013608Y019979D01*
X013479Y020108D01*
X013311Y020177D01*
X013129Y020177D01*
X012961Y020108D01*
X012832Y019979D01*
X012763Y019811D01*
X012763Y019629D01*
X012784Y019578D01*
X012649Y019578D01*
X012517Y019524D01*
X012416Y019423D01*
X012362Y019291D01*
X012362Y019149D01*
X012416Y019017D01*
X012517Y018916D01*
X012649Y018862D01*
X012784Y018862D01*
X012763Y018811D01*
X012763Y018629D01*
X012784Y018578D01*
X012649Y018578D01*
X012517Y018524D01*
X012416Y018423D01*
X012362Y018291D01*
X012362Y018149D01*
X012416Y018017D01*
X012517Y017916D01*
X012649Y017862D01*
X012784Y017862D01*
X012763Y017811D01*
X012763Y017629D01*
X012832Y017461D01*
X012961Y017332D01*
X013054Y017294D01*
X012991Y017273D01*
X012907Y017231D01*
X012831Y017175D01*
X012765Y017109D01*
X012709Y017033D01*
X012667Y016949D01*
X012638Y016860D01*
X012623Y016767D01*
X012623Y016720D01*
X012623Y016673D01*
X012638Y016580D01*
X012667Y016491D01*
X012709Y016407D01*
X012765Y016331D01*
X012831Y016265D01*
X012907Y016209D01*
X012991Y016167D01*
X013054Y016146D01*
X012961Y016108D01*
X012832Y015979D01*
X012763Y015811D01*
X012763Y015629D01*
X012832Y015461D01*
X012961Y015332D01*
X013129Y015263D01*
X013311Y015263D01*
X013479Y015332D01*
X013608Y015461D01*
X013677Y015629D01*
X013677Y015811D01*
X013608Y015979D01*
X013479Y016108D01*
X013386Y016146D01*
X013449Y016167D01*
X013533Y016209D01*
X013609Y016265D01*
X013675Y016331D01*
X013731Y016407D01*
X013773Y016491D01*
X013802Y016580D01*
X013817Y016673D01*
X013817Y016720D01*
X013817Y016767D01*
X013802Y016860D01*
X013773Y016949D01*
X013731Y017033D01*
X013675Y017109D01*
X013609Y017175D01*
X013533Y017231D01*
X013449Y017273D01*
X013386Y017294D01*
X013479Y017332D01*
X013608Y017461D01*
X013677Y017629D01*
X013677Y017811D01*
X013632Y017920D01*
X014280Y017920D01*
X014390Y017966D01*
X014783Y018358D01*
X014783Y018039D01*
X015039Y017783D01*
X015401Y017783D01*
X015657Y018039D01*
X015657Y018401D01*
X015639Y018420D01*
X015780Y018420D01*
X015817Y018435D01*
X015783Y018401D01*
X015783Y018039D01*
X016039Y017783D01*
X016401Y017783D01*
X016657Y018039D01*
X016657Y018401D01*
X016401Y018657D01*
X016082Y018657D01*
X016207Y018783D01*
X016401Y018783D01*
X016657Y019039D01*
X016657Y019401D01*
X016401Y019657D01*
X016039Y019657D01*
X015783Y019401D01*
X015783Y019207D01*
X015657Y019082D01*
X015657Y019401D01*
X015416Y019643D01*
X015509Y019643D01*
X015571Y019655D01*
X015629Y019679D01*
X015681Y019714D01*
X015726Y019759D01*
X015761Y019811D01*
X015785Y019869D01*
X015797Y019931D01*
X015797Y020024D01*
X016039Y019783D01*
X016401Y019783D01*
X016657Y020039D01*
X016657Y020401D01*
X016401Y020657D01*
X016039Y020657D01*
X015797Y020416D01*
X015797Y020509D01*
X015785Y020571D01*
X015761Y020629D01*
X015726Y020681D01*
X015722Y020685D01*
X019353Y020685D01*
X019132Y020575D01*
X019132Y020575D01*
X018878Y020296D01*
X018742Y019945D01*
X018742Y019568D01*
X018878Y019217D01*
X018878Y019217D01*
X019132Y018938D01*
X019469Y018770D01*
X019844Y018735D01*
X020207Y018839D01*
X020507Y019066D01*
X020685Y019353D01*
X020685Y002837D01*
X020507Y003124D01*
X020207Y003351D01*
X019844Y003455D01*
X019469Y003420D01*
X019469Y003420D01*
X019132Y003252D01*
X019132Y003252D01*
X019132Y003252D01*
X018878Y002973D01*
X018742Y002622D01*
X018742Y002245D01*
X018878Y001894D01*
X018878Y001894D01*
X019132Y001615D01*
X019469Y001447D01*
X019549Y001440D01*
X014048Y001440D01*
X014085Y001476D01*
X014464Y001855D01*
X014585Y001976D01*
X014650Y002134D01*
X014650Y003264D01*
X015861Y003264D01*
X015967Y003370D01*
X015967Y004070D01*
X015861Y004176D01*
X014650Y004176D01*
X014650Y011450D01*
X015026Y011450D01*
X015122Y011490D01*
X015440Y011490D01*
X015545Y011595D01*
X015545Y012165D01*
X015495Y012215D01*
X015545Y012265D01*
X015545Y012745D01*
X015569Y012761D01*
X015614Y012806D01*
X015649Y012858D01*
X015673Y012917D01*
X015685Y012978D01*
X015685Y013220D01*
X015685Y013462D01*
X015673Y013523D01*
X015649Y013582D01*
X015614Y013634D01*
X015569Y013679D01*
X015545Y013695D01*
X015545Y014085D01*
X015569Y014101D01*
X015614Y014146D01*
X015649Y014198D01*
X015673Y014257D01*
X015685Y014318D01*
X015685Y014560D01*
X015685Y014802D01*
X015673Y014863D01*
X015649Y014922D01*
X015614Y014974D01*
X015569Y015019D01*
X015517Y015054D01*
X015458Y015078D01*
X015397Y015090D01*
X014940Y015090D01*
X014940Y014560D01*
X014940Y014560D01*
X015685Y014560D01*
X014940Y014560D01*
X014940Y014560D01*
X014940Y014560D01*
X014195Y014560D01*
X014195Y014802D01*
X014207Y014863D01*
X014231Y014922D01*
X014266Y014974D01*
X014311Y015019D01*
X014363Y015054D01*
X014422Y015078D01*
X014483Y015090D01*
X014940Y015090D01*
X014940Y014560D01*
X014195Y014560D01*
X014195Y014353D01*
X013635Y014913D01*
X013608Y014979D01*
X013479Y015108D01*
X013311Y015177D01*
X013129Y015177D01*
X012961Y015108D01*
X012832Y014979D01*
X012763Y014811D01*
X012763Y014629D01*
X012832Y014461D01*
X012961Y014332D01*
X013027Y014305D01*
X013155Y014177D01*
X013129Y014177D01*
X012961Y014108D01*
X012832Y013979D01*
X012763Y013811D01*
X012763Y013629D01*
X012832Y013461D01*
X012961Y013332D01*
X013129Y013263D01*
X013311Y013263D01*
X013479Y013332D01*
X013608Y013461D01*
X013677Y013629D01*
X013677Y013655D01*
X013806Y013525D01*
X013964Y013460D01*
X014195Y013460D01*
X014195Y013220D01*
X014940Y013220D01*
X014940Y013460D01*
X014940Y013460D01*
X014940Y013220D01*
X014940Y013220D01*
X015685Y013220D01*
X014940Y013220D01*
X014940Y013220D01*
X014940Y012980D01*
X014940Y012980D01*
X014940Y013220D01*
X014940Y013220D01*
X014940Y013220D01*
X014195Y013220D01*
X014195Y012980D01*
X013964Y012980D01*
X013806Y012915D01*
X013677Y012785D01*
X013677Y012811D01*
X013608Y012979D01*
X013479Y013108D01*
X013311Y013177D01*
X013129Y013177D01*
X012961Y013108D01*
X012832Y012979D01*
X012763Y012811D01*
X012763Y012629D01*
X012832Y012461D01*
X012961Y012332D01*
X013129Y012263D01*
X013290Y012263D01*
X013290Y012177D01*
X013129Y012177D01*
X012961Y012108D01*
X012832Y011979D01*
X012763Y011811D01*
X012763Y011629D01*
X012832Y011461D01*
X012961Y011332D01*
X013129Y011263D01*
X013311Y011263D01*
X013479Y011332D01*
X013608Y011461D01*
X013677Y011629D01*
X013677Y011790D01*
X013790Y011790D01*
X013790Y002398D01*
X013542Y002150D01*
X012855Y002150D01*
X012408Y002597D01*
X012408Y003543D01*
X012302Y003648D01*
X011051Y003648D01*
X010946Y003543D01*
X010946Y001897D01*
X011051Y001792D01*
X011997Y001792D01*
X012349Y001440D01*
X008091Y001440D01*
X008443Y001792D01*
X009389Y001792D01*
X009494Y001897D01*
X009494Y003543D01*
X009389Y003648D01*
X008138Y003648D01*
X008032Y003543D01*
X008032Y002597D01*
X007585Y002150D01*
X005398Y002150D01*
X005150Y002398D01*
X005150Y002605D01*
X004605Y003150D01*
X003835Y003150D01*
X003290Y002605D01*
X003290Y001835D01*
X003685Y001440D01*
X002953Y001440D01*
X003290Y001777D01*
X003290Y002202D01*
X002238Y002202D01*
X002238Y002238D01*
X002202Y002238D01*
X002202Y003290D01*
X001777Y003290D01*
X001440Y002953D01*
X001440Y013145D01*
X001564Y013145D01*
X001776Y013233D01*
X001937Y013394D01*
X002025Y013606D01*
X002025Y013834D01*
X001937Y014046D01*
X002014Y013861D02*
X003920Y013861D01*
X003920Y013622D02*
X002025Y013622D01*
X001927Y013384D02*
X003920Y013384D01*
X003926Y013145D02*
X001564Y013145D01*
X001440Y012907D02*
X004109Y012907D01*
X004348Y012668D02*
X001440Y012668D01*
X001440Y012430D02*
X004586Y012430D01*
X004670Y012191D02*
X002583Y012191D01*
X002614Y012173D02*
X002538Y012217D01*
X002457Y012251D01*
X002371Y012273D01*
X002284Y012285D01*
X002240Y012285D01*
X002240Y011260D01*
X002240Y011260D01*
X002912Y011260D01*
X002912Y011657D01*
X002901Y011744D01*
X002878Y011829D01*
X002844Y011911D01*
X002800Y011987D01*
X002747Y012057D01*
X002684Y012119D01*
X002614Y012173D01*
X002820Y011953D02*
X003787Y011953D01*
X003668Y011714D02*
X002905Y011714D01*
X002912Y011476D02*
X003668Y011476D01*
X003668Y011237D02*
X002912Y011237D01*
X002912Y011260D02*
X002240Y011260D01*
X002240Y011260D01*
X002240Y011260D01*
X001568Y011260D01*
X001568Y010863D01*
X001579Y010776D01*
X001602Y010691D01*
X001636Y010609D01*
X001680Y010533D01*
X001733Y010463D01*
X001796Y010401D01*
X001866Y010347D01*
X001942Y010303D01*
X002023Y010269D01*
X002109Y010247D01*
X002196Y010235D01*
X002240Y010235D01*
X002284Y010235D01*
X002371Y010247D01*
X002457Y010269D01*
X002538Y010303D01*
X002614Y010347D01*
X002684Y010401D01*
X002747Y010463D01*
X002800Y010533D01*
X002844Y010609D01*
X002878Y010691D01*
X002901Y010776D01*
X002912Y010863D01*
X002912Y011260D01*
X002912Y010999D02*
X003668Y010999D01*
X003685Y010760D02*
X002897Y010760D01*
X002791Y010522D02*
X003833Y010522D01*
X004567Y010522D02*
X005119Y010522D01*
X005358Y010283D02*
X002490Y010283D01*
X002240Y010283D02*
X002240Y010283D01*
X002240Y010235D02*
X002240Y011260D01*
X002240Y012285D01*
X002196Y012285D01*
X002109Y012273D01*
X002023Y012251D01*
X001942Y012217D01*
X001866Y012173D01*
X001796Y012119D01*
X001733Y012057D01*
X001680Y011987D01*
X001636Y011911D01*
X001602Y011829D01*
X001579Y011744D01*
X001568Y011657D01*
X001568Y011260D01*
X002240Y011260D01*
X002240Y011260D01*
X002240Y010235D01*
X001990Y010283D02*
X001440Y010283D01*
X001440Y010045D02*
X005533Y010045D01*
X005640Y009806D02*
X001440Y009806D01*
X001440Y009568D02*
X006788Y009568D01*
X006763Y009629D02*
X006832Y009461D01*
X006961Y009332D01*
X007129Y009263D01*
X007311Y009263D01*
X007479Y009332D01*
X007608Y009461D01*
X007677Y009629D01*
X007677Y009811D01*
X007608Y009979D01*
X007479Y010108D01*
X007311Y010177D01*
X007129Y010177D01*
X006961Y010108D01*
X006832Y009979D01*
X006763Y009811D01*
X006763Y009629D01*
X006763Y009806D02*
X006300Y009806D01*
X006407Y010045D02*
X006898Y010045D01*
X006961Y010332D02*
X007129Y010263D01*
X007311Y010263D01*
X007479Y010332D01*
X007608Y010461D01*
X007677Y010629D01*
X007677Y010811D01*
X007608Y010979D01*
X007479Y011108D01*
X007311Y011177D01*
X007129Y011177D01*
X006961Y011108D01*
X006832Y010979D01*
X006763Y010811D01*
X006763Y010629D01*
X006832Y010461D01*
X006961Y010332D01*
X007080Y010283D02*
X006366Y010283D01*
X006084Y010522D02*
X006807Y010522D01*
X006763Y010760D02*
X006254Y010760D01*
X006404Y010999D02*
X006852Y010999D01*
X006961Y011332D02*
X007129Y011263D01*
X007311Y011263D01*
X007479Y011332D01*
X007608Y011461D01*
X007677Y011629D01*
X007677Y011811D01*
X007608Y011979D01*
X007479Y012108D01*
X007311Y012177D01*
X007129Y012177D01*
X006961Y012108D01*
X006832Y011979D01*
X006763Y011811D01*
X006763Y011629D01*
X006832Y011461D01*
X006961Y011332D01*
X006826Y011476D02*
X006195Y011476D01*
X006385Y011237D02*
X007920Y011237D01*
X007920Y010999D02*
X007588Y010999D01*
X007677Y010760D02*
X007862Y010760D01*
X007862Y010791D02*
X007862Y010649D01*
X007916Y010517D01*
X008017Y010416D01*
X008149Y010362D01*
X008291Y010362D01*
X008423Y010416D01*
X008524Y010517D01*
X008578Y010649D01*
X008578Y010791D01*
X008528Y010912D01*
X008649Y010862D01*
X008791Y010862D01*
X008923Y010916D01*
X009024Y011017D01*
X009078Y011149D01*
X009078Y011291D01*
X009024Y011423D01*
X009020Y011426D01*
X009020Y013014D01*
X009024Y013017D01*
X009078Y013149D01*
X009078Y013291D01*
X009024Y013423D01*
X008923Y013524D01*
X008791Y013578D01*
X008649Y013578D01*
X008517Y013524D01*
X008416Y013423D01*
X008362Y013291D01*
X008362Y013149D01*
X008412Y013028D01*
X008291Y013078D01*
X008149Y013078D01*
X008017Y013024D01*
X007916Y012923D01*
X007862Y012791D01*
X007862Y012649D01*
X007916Y012517D01*
X007920Y012514D01*
X007920Y010926D01*
X007916Y010923D01*
X007862Y010791D01*
X007915Y010522D02*
X007633Y010522D01*
X007360Y010283D02*
X013080Y010283D01*
X013129Y010263D02*
X013311Y010263D01*
X013479Y010332D01*
X013608Y010461D01*
X013677Y010629D01*
X013677Y010811D01*
X013608Y010979D01*
X013479Y011108D01*
X013311Y011177D01*
X013129Y011177D01*
X012961Y011108D01*
X012832Y010979D01*
X012763Y010811D01*
X012763Y010629D01*
X012832Y010461D01*
X012961Y010332D01*
X013129Y010263D01*
X013129Y010177D02*
X012961Y010108D01*
X012832Y009979D01*
X012763Y009811D01*
X012763Y009629D01*
X012832Y009461D01*
X012961Y009332D01*
X013129Y009263D01*
X013311Y009263D01*
X013479Y009332D01*
X013608Y009461D01*
X013677Y009629D01*
X013677Y009811D01*
X013608Y009979D01*
X013479Y010108D01*
X013311Y010177D01*
X013129Y010177D01*
X013360Y010283D02*
X013790Y010283D01*
X013790Y010045D02*
X013542Y010045D01*
X013677Y009806D02*
X013790Y009806D01*
X013790Y009568D02*
X013652Y009568D01*
X013790Y009329D02*
X013471Y009329D01*
X013311Y009177D02*
X013129Y009177D01*
X012961Y009108D01*
X012832Y008979D01*
X012763Y008811D01*
X012763Y008629D01*
X012832Y008461D01*
X012961Y008332D01*
X013129Y008263D01*
X013311Y008263D01*
X013479Y008332D01*
X013608Y008461D01*
X013677Y008629D01*
X013677Y008811D01*
X013608Y008979D01*
X013479Y009108D01*
X013311Y009177D01*
X013496Y009091D02*
X013790Y009091D01*
X013790Y008852D02*
X013660Y008852D01*
X013671Y008614D02*
X013790Y008614D01*
X013790Y008375D02*
X013522Y008375D01*
X013409Y008137D02*
X013790Y008137D01*
X013608Y007979D02*
X013479Y008108D01*
X013311Y008177D01*
X013129Y008177D01*
X012961Y008108D01*
X012832Y007979D01*
X012763Y007811D01*
X012763Y007629D01*
X012832Y007461D01*
X012961Y007332D01*
X013129Y007263D01*
X013311Y007263D01*
X013479Y007332D01*
X013608Y007461D01*
X013677Y007629D01*
X013677Y007811D01*
X013608Y007979D01*
X013641Y007898D02*
X013790Y007898D01*
X013790Y007660D02*
X013677Y007660D01*
X013568Y007421D02*
X013790Y007421D01*
X013790Y007183D02*
X006991Y007183D01*
X006995Y007158D02*
X006963Y007332D01*
X007129Y007263D01*
X007311Y007263D01*
X007479Y007332D01*
X007608Y007461D01*
X007677Y007629D01*
X007677Y007811D01*
X007608Y007979D01*
X007479Y008108D01*
X007311Y008177D01*
X007129Y008177D01*
X006961Y008108D01*
X006832Y007979D01*
X006763Y007811D01*
X006763Y007792D01*
X006728Y007849D01*
X006728Y007849D01*
X006728Y007849D01*
X006427Y008076D01*
X006065Y008179D01*
X006065Y008179D01*
X005689Y008144D01*
X005352Y007976D01*
X005098Y007698D01*
X004962Y007346D01*
X004962Y006970D01*
X005098Y006618D01*
X005352Y006340D01*
X005352Y006340D01*
X005689Y006172D01*
X005689Y006172D01*
X006065Y006137D01*
X006427Y006240D01*
X006427Y006240D01*
X006728Y006467D01*
X006728Y006467D01*
X006789Y006566D01*
X006832Y006461D01*
X006961Y006332D01*
X007129Y006263D01*
X007311Y006263D01*
X007479Y006332D01*
X007608Y006461D01*
X007677Y006629D01*
X007677Y006811D01*
X007608Y006979D01*
X007479Y007108D01*
X007311Y007177D01*
X007129Y007177D01*
X006988Y007119D01*
X006995Y007158D01*
X006995Y007158D01*
X007568Y007421D02*
X012872Y007421D01*
X012763Y007660D02*
X007677Y007660D01*
X007641Y007898D02*
X012799Y007898D01*
X013031Y008137D02*
X007409Y008137D01*
X007311Y008263D02*
X007479Y008332D01*
X007608Y008461D01*
X007677Y008629D01*
X007677Y008811D01*
X007608Y008979D01*
X007479Y009108D01*
X007311Y009177D01*
X007129Y009177D01*
X006961Y009108D01*
X006832Y008979D01*
X006763Y008811D01*
X006763Y008629D01*
X006832Y008461D01*
X006961Y008332D01*
X007129Y008263D01*
X007311Y008263D01*
X007522Y008375D02*
X012918Y008375D01*
X012769Y008614D02*
X007671Y008614D01*
X007660Y008852D02*
X012780Y008852D01*
X012944Y009091D02*
X007496Y009091D01*
X007471Y009329D02*
X012969Y009329D01*
X012788Y009568D02*
X007652Y009568D01*
X007677Y009806D02*
X012763Y009806D01*
X012898Y010045D02*
X007542Y010045D01*
X006969Y009329D02*
X006407Y009329D01*
X006407Y009427D02*
X006302Y009532D01*
X005638Y009532D01*
X005533Y009427D01*
X005533Y008763D01*
X005638Y008658D01*
X006302Y008658D01*
X006407Y008763D01*
X006407Y009427D01*
X006407Y009091D02*
X006944Y009091D01*
X006780Y008852D02*
X006407Y008852D01*
X006769Y008614D02*
X004230Y008614D01*
X004230Y008509D02*
X004230Y008931D01*
X003931Y009230D01*
X003509Y009230D01*
X003319Y009040D01*
X002989Y009370D01*
X002720Y009370D01*
X002720Y008720D01*
X002720Y008720D01*
X002720Y009370D01*
X002451Y009370D01*
X002070Y008989D01*
X002070Y008720D01*
X002720Y008720D01*
X002720Y008070D01*
X002989Y008070D01*
X003319Y008400D01*
X003509Y008210D01*
X003931Y008210D01*
X004230Y008509D01*
X004096Y008375D02*
X006918Y008375D01*
X007031Y008137D02*
X006214Y008137D01*
X006427Y008076D02*
X006427Y008076D01*
X006663Y007898D02*
X006799Y007898D01*
X005689Y008144D02*
X005689Y008144D01*
X005674Y008137D02*
X003056Y008137D01*
X002720Y008137D02*
X002720Y008137D01*
X002720Y008070D02*
X002451Y008070D01*
X002070Y008451D01*
X002070Y008720D01*
X002720Y008720D01*
X002720Y008720D01*
X002720Y008720D01*
X002720Y008070D01*
X002384Y008137D02*
X001440Y008137D01*
X001440Y008375D02*
X002146Y008375D01*
X002070Y008614D02*
X001440Y008614D01*
X001440Y008852D02*
X002070Y008852D01*
X002171Y009091D02*
X001440Y009091D01*
X001440Y009329D02*
X002410Y009329D01*
X002720Y009329D02*
X002720Y009329D01*
X002720Y009091D02*
X002720Y009091D01*
X002720Y008852D02*
X002720Y008852D01*
X002720Y008614D02*
X002720Y008614D01*
X002720Y008375D02*
X002720Y008375D01*
X003294Y008375D02*
X003344Y008375D01*
X003369Y009091D02*
X003269Y009091D01*
X003030Y009329D02*
X005533Y009329D01*
X005533Y009091D02*
X004071Y009091D01*
X004230Y008852D02*
X005533Y008852D01*
X005352Y007976D02*
X005352Y007976D01*
X005281Y007898D02*
X001440Y007898D01*
X001440Y007660D02*
X005083Y007660D01*
X005098Y007698D02*
X005098Y007698D01*
X004991Y007421D02*
X001440Y007421D01*
X001440Y007183D02*
X004962Y007183D01*
X004972Y006944D02*
X001440Y006944D01*
X001440Y006706D02*
X002286Y006706D01*
X002451Y006870D02*
X002070Y006489D01*
X002070Y006220D01*
X002720Y006220D01*
X002720Y006220D01*
X002720Y006870D01*
X002989Y006870D01*
X003319Y006540D01*
X003509Y006730D01*
X003931Y006730D01*
X004230Y006431D01*
X004230Y006009D01*
X003931Y005710D01*
X003509Y005710D01*
X003319Y005900D01*
X002989Y005570D01*
X002720Y005570D01*
X002720Y006220D01*
X002720Y006870D01*
X002451Y006870D01*
X002720Y006706D02*
X002720Y006706D01*
X002720Y006467D02*
X002720Y006467D01*
X002720Y006229D02*
X002720Y006229D01*
X002720Y006220D02*
X002720Y006220D01*
X002720Y006220D01*
X002720Y005570D01*
X002451Y005570D01*
X002070Y005951D01*
X002070Y006220D01*
X002720Y006220D01*
X002720Y005990D02*
X002720Y005990D01*
X002720Y005752D02*
X002720Y005752D01*
X003171Y005752D02*
X003467Y005752D01*
X003973Y005752D02*
X006763Y005752D01*
X006763Y005811D02*
X006763Y005629D01*
X006832Y005461D01*
X006961Y005332D01*
X007129Y005263D01*
X007311Y005263D01*
X007479Y005332D01*
X007608Y005461D01*
X007677Y005629D01*
X007677Y005811D01*
X007608Y005979D01*
X007479Y006108D01*
X007311Y006177D01*
X007129Y006177D01*
X006961Y006108D01*
X006832Y005979D01*
X006763Y005811D01*
X006843Y005990D02*
X004211Y005990D01*
X004230Y006229D02*
X005576Y006229D01*
X005236Y006467D02*
X004194Y006467D01*
X003956Y006706D02*
X005064Y006706D01*
X005098Y006618D02*
X005098Y006618D01*
X006065Y006137D02*
X006065Y006137D01*
X006386Y006229D02*
X013790Y006229D01*
X013790Y006467D02*
X013610Y006467D01*
X013608Y006461D02*
X013677Y006629D01*
X013677Y006811D01*
X013608Y006979D01*
X013479Y007108D01*
X013311Y007177D01*
X013129Y007177D01*
X012961Y007108D01*
X012832Y006979D01*
X012763Y006811D01*
X012763Y006629D01*
X012832Y006461D01*
X012961Y006332D01*
X013129Y006263D01*
X013311Y006263D01*
X013479Y006332D01*
X013608Y006461D01*
X013677Y006706D02*
X013790Y006706D01*
X013790Y006944D02*
X013622Y006944D01*
X012818Y006944D02*
X007622Y006944D01*
X007677Y006706D02*
X012763Y006706D01*
X012830Y006467D02*
X007610Y006467D01*
X007597Y005990D02*
X012843Y005990D01*
X012832Y005979D02*
X012763Y005811D01*
X012763Y005629D01*
X012832Y005461D01*
X012961Y005332D01*
X013129Y005263D01*
X013311Y005263D01*
X013479Y005332D01*
X013608Y005461D01*
X013677Y005629D01*
X013677Y005811D01*
X013608Y005979D01*
X013479Y006108D01*
X013311Y006177D01*
X013129Y006177D01*
X012961Y006108D01*
X012832Y005979D01*
X012763Y005752D02*
X007677Y005752D01*
X007629Y005513D02*
X012811Y005513D01*
X013101Y005275D02*
X007339Y005275D01*
X007311Y005177D02*
X007129Y005177D01*
X006961Y005108D01*
X006832Y004979D01*
X006763Y004811D01*
X006763Y004629D01*
X006832Y004461D01*
X006961Y004332D01*
X007129Y004263D01*
X007311Y004263D01*
X007479Y004332D01*
X007608Y004461D01*
X007677Y004629D01*
X007677Y004811D01*
X007608Y004979D01*
X007479Y005108D01*
X007311Y005177D01*
X007101Y005275D02*
X001440Y005275D01*
X001440Y005513D02*
X006811Y005513D01*
X006889Y005036D02*
X001440Y005036D01*
X001440Y004798D02*
X006763Y004798D01*
X006792Y004559D02*
X001440Y004559D01*
X001440Y004321D02*
X006990Y004321D01*
X007129Y004177D02*
X006961Y004108D01*
X006832Y003979D01*
X006763Y003811D01*
X006763Y003629D01*
X006832Y003461D01*
X006961Y003332D01*
X007129Y003263D01*
X007311Y003263D01*
X007479Y003332D01*
X007608Y003461D01*
X007677Y003629D01*
X007677Y003811D01*
X007608Y003979D01*
X007479Y004108D01*
X007311Y004177D01*
X007129Y004177D01*
X006935Y004082D02*
X001440Y004082D01*
X001440Y003844D02*
X006776Y003844D01*
X006773Y003605D02*
X001440Y003605D01*
X001440Y003367D02*
X006927Y003367D01*
X007013Y003128D02*
X004627Y003128D01*
X004866Y002890D02*
X006796Y002890D01*
X006764Y002811D02*
X006764Y002629D01*
X006833Y002462D01*
X006962Y002333D01*
X007129Y002264D01*
X007311Y002264D01*
X007478Y002333D01*
X007607Y002462D01*
X007676Y002629D01*
X007676Y002811D01*
X007607Y002978D01*
X007478Y003107D01*
X007311Y003176D01*
X007129Y003176D01*
X006962Y003107D01*
X006833Y002978D01*
X006764Y002811D01*
X006764Y002651D02*
X005104Y002651D01*
X005150Y002413D02*
X006882Y002413D01*
X007558Y002413D02*
X007848Y002413D01*
X007609Y002174D02*
X005374Y002174D01*
X003813Y003128D02*
X002825Y003128D01*
X002663Y003290D02*
X002238Y003290D01*
X002238Y002238D01*
X003290Y002238D01*
X003290Y002663D01*
X002663Y003290D01*
X003064Y002890D02*
X003574Y002890D01*
X003336Y002651D02*
X003290Y002651D01*
X003290Y002413D02*
X003290Y002413D01*
X003290Y002174D02*
X003290Y002174D01*
X003290Y001936D02*
X003290Y001936D01*
X003210Y001697D02*
X003428Y001697D01*
X003666Y001459D02*
X002972Y001459D01*
X002238Y002413D02*
X002202Y002413D01*
X002202Y002651D02*
X002238Y002651D01*
X002238Y002890D02*
X002202Y002890D01*
X002202Y003128D02*
X002238Y003128D01*
X001615Y003128D02*
X001440Y003128D01*
X001440Y005752D02*
X002269Y005752D01*
X002070Y005990D02*
X001440Y005990D01*
X001440Y006229D02*
X002070Y006229D01*
X002070Y006467D02*
X001440Y006467D01*
X003154Y006706D02*
X003484Y006706D01*
X006727Y006467D02*
X006830Y006467D01*
X007551Y005036D02*
X012889Y005036D01*
X012832Y004979D02*
X012763Y004811D01*
X012763Y004629D01*
X012832Y004461D01*
X012961Y004332D01*
X013129Y004263D01*
X013311Y004263D01*
X013479Y004332D01*
X013608Y004461D01*
X013677Y004629D01*
X013677Y004811D01*
X013608Y004979D01*
X013479Y005108D01*
X013311Y005177D01*
X013129Y005177D01*
X012961Y005108D01*
X012832Y004979D01*
X012763Y004798D02*
X007677Y004798D01*
X007648Y004559D02*
X012792Y004559D01*
X012990Y004321D02*
X007450Y004321D01*
X007505Y004082D02*
X012935Y004082D01*
X012961Y004108D02*
X012832Y003979D01*
X012763Y003811D01*
X012763Y003629D01*
X012832Y003461D01*
X012961Y003332D01*
X013129Y003263D01*
X013311Y003263D01*
X013479Y003332D01*
X013608Y003461D01*
X013677Y003629D01*
X013677Y003811D01*
X013608Y003979D01*
X013479Y004108D01*
X013311Y004177D01*
X013129Y004177D01*
X012961Y004108D01*
X012776Y003844D02*
X007664Y003844D01*
X007667Y003605D02*
X008095Y003605D01*
X008032Y003367D02*
X007513Y003367D01*
X007427Y003128D02*
X008032Y003128D01*
X008032Y002890D02*
X007644Y002890D01*
X007676Y002651D02*
X008032Y002651D01*
X008348Y001697D02*
X012092Y001697D01*
X012330Y001459D02*
X008110Y001459D01*
X009494Y001936D02*
X010946Y001936D01*
X010946Y002174D02*
X009494Y002174D01*
X009494Y002413D02*
X010946Y002413D01*
X010946Y002651D02*
X009494Y002651D01*
X009494Y002890D02*
X010946Y002890D01*
X010946Y003128D02*
X009494Y003128D01*
X009494Y003367D02*
X010946Y003367D01*
X011008Y003605D02*
X009432Y003605D01*
X012345Y003605D02*
X012773Y003605D01*
X012927Y003367D02*
X012408Y003367D01*
X012408Y003128D02*
X013013Y003128D01*
X012962Y003107D02*
X012833Y002978D01*
X012764Y002811D01*
X012764Y002629D01*
X012833Y002462D01*
X012962Y002333D01*
X013129Y002264D01*
X013311Y002264D01*
X013478Y002333D01*
X013607Y002462D01*
X013676Y002629D01*
X013676Y002811D01*
X013607Y002978D01*
X013478Y003107D01*
X013311Y003176D01*
X013129Y003176D01*
X012962Y003107D01*
X012796Y002890D02*
X012408Y002890D01*
X012408Y002651D02*
X012764Y002651D01*
X012882Y002413D02*
X012592Y002413D01*
X012831Y002174D02*
X013566Y002174D01*
X013558Y002413D02*
X013790Y002413D01*
X013790Y002651D02*
X013676Y002651D01*
X013644Y002890D02*
X013790Y002890D01*
X013790Y003128D02*
X013427Y003128D01*
X013513Y003367D02*
X013790Y003367D01*
X013790Y003605D02*
X013667Y003605D01*
X013664Y003844D02*
X013790Y003844D01*
X013790Y004082D02*
X013505Y004082D01*
X013450Y004321D02*
X013790Y004321D01*
X013790Y004559D02*
X013648Y004559D01*
X013677Y004798D02*
X013790Y004798D01*
X013790Y005036D02*
X013551Y005036D01*
X013339Y005275D02*
X013790Y005275D01*
X013790Y005513D02*
X013629Y005513D01*
X013677Y005752D02*
X013790Y005752D01*
X013790Y005990D02*
X013597Y005990D01*
X014650Y005990D02*
X020685Y005990D01*
X020685Y005752D02*
X014650Y005752D01*
X014650Y005513D02*
X020685Y005513D01*
X020685Y005275D02*
X014650Y005275D01*
X014650Y005036D02*
X020685Y005036D01*
X020685Y004798D02*
X014650Y004798D01*
X014650Y004559D02*
X020685Y004559D01*
X020685Y004321D02*
X014650Y004321D01*
X014650Y003128D02*
X016603Y003128D01*
X016622Y003124D02*
X017383Y003124D01*
X017383Y003702D01*
X016333Y003702D01*
X016333Y003413D01*
X016345Y003351D01*
X016369Y003293D01*
X016405Y003240D01*
X016449Y003196D01*
X016501Y003161D01*
X016560Y003137D01*
X016622Y003124D01*
X016342Y003367D02*
X015964Y003367D01*
X015967Y003605D02*
X016333Y003605D01*
X016333Y003738D02*
X017383Y003738D01*
X017383Y003702D01*
X017419Y003702D01*
X017419Y003124D01*
X018181Y003124D01*
X018242Y003137D01*
X018301Y003161D01*
X018353Y003196D01*
X018398Y003240D01*
X018433Y003293D01*
X018457Y003351D01*
X018469Y003413D01*
X018469Y003702D01*
X017419Y003702D01*
X017419Y003738D01*
X017383Y003738D01*
X017383Y004316D01*
X016622Y004316D01*
X016560Y004303D01*
X016501Y004279D01*
X016449Y004244D01*
X016405Y004200D01*
X016369Y004147D01*
X016345Y004089D01*
X016333Y004027D01*
X016333Y003738D01*
X016333Y003844D02*
X015967Y003844D01*
X015955Y004082D02*
X016344Y004082D01*
X017383Y004082D02*
X017419Y004082D01*
X017419Y004316D02*
X017419Y003738D01*
X018469Y003738D01*
X018469Y004027D01*
X018457Y004089D01*
X018433Y004147D01*
X018398Y004200D01*
X018353Y004244D01*
X018301Y004279D01*
X018242Y004303D01*
X018181Y004316D01*
X017419Y004316D01*
X017419Y003844D02*
X017383Y003844D01*
X017383Y003605D02*
X017419Y003605D01*
X017419Y003367D02*
X017383Y003367D01*
X017383Y003128D02*
X017419Y003128D01*
X018199Y003128D02*
X019019Y003128D01*
X018878Y002973D02*
X018878Y002973D01*
X018845Y002890D02*
X014650Y002890D01*
X014650Y002651D02*
X018753Y002651D01*
X018742Y002413D02*
X014650Y002413D01*
X014650Y002174D02*
X018769Y002174D01*
X018862Y001936D02*
X014544Y001936D01*
X014305Y001697D02*
X019057Y001697D01*
X019132Y001615D02*
X019132Y001615D01*
X019447Y001459D02*
X014067Y001459D01*
X014085Y001476D02*
X014085Y001476D01*
X018460Y003367D02*
X019362Y003367D01*
X019844Y003455D02*
X019844Y003455D01*
X020154Y003367D02*
X020685Y003367D01*
X020685Y003605D02*
X018469Y003605D01*
X018469Y003844D02*
X020685Y003844D01*
X020685Y004082D02*
X018458Y004082D01*
X020207Y003351D02*
X020207Y003351D01*
X020502Y003128D02*
X020685Y003128D01*
X020507Y003124D02*
X020507Y003124D01*
X020507Y003124D01*
X020653Y002890D02*
X020685Y002890D01*
X019469Y001447D02*
X019469Y001447D01*
X020685Y006229D02*
X014650Y006229D01*
X014650Y006467D02*
X020685Y006467D01*
X020685Y006706D02*
X014650Y006706D01*
X014650Y006944D02*
X020685Y006944D01*
X020685Y007183D02*
X014650Y007183D01*
X014650Y007421D02*
X020685Y007421D01*
X020685Y007660D02*
X014650Y007660D01*
X014650Y007898D02*
X020685Y007898D01*
X020685Y008137D02*
X014650Y008137D01*
X014650Y008375D02*
X015055Y008375D01*
X015032Y008397D02*
X015138Y008292D01*
X016173Y008292D01*
X016178Y008290D01*
X016806Y008290D01*
X016964Y008355D01*
X017085Y008476D01*
X017150Y008634D01*
X017150Y008806D01*
X017085Y008964D01*
X016964Y009085D01*
X016806Y009150D01*
X016494Y009150D01*
X016494Y010043D01*
X016389Y010148D01*
X015138Y010148D01*
X015032Y010043D01*
X015032Y008397D01*
X015032Y008614D02*
X014650Y008614D01*
X014650Y008852D02*
X015032Y008852D01*
X015032Y009091D02*
X014650Y009091D01*
X014650Y009329D02*
X015032Y009329D01*
X015032Y009568D02*
X014650Y009568D01*
X014650Y009806D02*
X015032Y009806D01*
X015034Y010045D02*
X014650Y010045D01*
X014650Y010283D02*
X018069Y010283D01*
X018094Y010288D02*
X018032Y010276D01*
X017974Y010252D01*
X017922Y010217D01*
X017877Y010172D01*
X017842Y010120D01*
X017818Y010061D01*
X017806Y010000D01*
X017806Y009340D01*
X018557Y009340D01*
X018557Y010288D01*
X018094Y010288D01*
X017814Y010045D02*
X016493Y010045D01*
X016494Y009806D02*
X017806Y009806D01*
X017806Y009568D02*
X016494Y009568D01*
X016494Y009329D02*
X018557Y009329D01*
X018557Y009340D02*
X018557Y009100D01*
X018797Y009100D01*
X018797Y009340D01*
X019548Y009340D01*
X019548Y010000D01*
X019536Y010061D01*
X019511Y010120D01*
X019476Y010172D01*
X019432Y010217D01*
X019379Y010252D01*
X019321Y010276D01*
X019259Y010288D01*
X018797Y010288D01*
X018797Y009340D01*
X018557Y009340D01*
X018557Y009568D02*
X018797Y009568D01*
X018797Y009806D02*
X018557Y009806D01*
X018557Y010045D02*
X018797Y010045D01*
X018797Y010283D02*
X018557Y010283D01*
X018340Y010774D02*
X020301Y010774D01*
X020363Y010786D01*
X020421Y010810D01*
X020473Y010845D01*
X020518Y010890D01*
X020553Y010942D01*
X020577Y011001D01*
X020589Y011062D01*
X020589Y013100D01*
X018340Y013100D01*
X018340Y013340D01*
X018100Y013340D01*
X018100Y015666D01*
X016139Y015666D01*
X016077Y015654D01*
X016019Y015630D01*
X015967Y015595D01*
X015922Y015550D01*
X015887Y015498D01*
X015863Y015439D01*
X015851Y015378D01*
X015851Y013340D01*
X018100Y013340D01*
X018100Y013100D01*
X018340Y013100D01*
X018340Y010774D01*
X018340Y010999D02*
X018100Y010999D01*
X018100Y010774D02*
X018100Y013100D01*
X015851Y013100D01*
X015851Y011062D01*
X015863Y011001D01*
X015887Y010942D01*
X015922Y010890D01*
X015967Y010845D01*
X016019Y010810D01*
X016077Y010786D01*
X016139Y010774D01*
X018100Y010774D01*
X018100Y011237D02*
X018340Y011237D01*
X018340Y011476D02*
X018100Y011476D01*
X018100Y011714D02*
X018340Y011714D01*
X018340Y011953D02*
X018100Y011953D01*
X018100Y012191D02*
X018340Y012191D01*
X018340Y012430D02*
X018100Y012430D01*
X018100Y012668D02*
X018340Y012668D01*
X018340Y012907D02*
X018100Y012907D01*
X018100Y013145D02*
X015685Y013145D01*
X015668Y012907D02*
X015851Y012907D01*
X015851Y012668D02*
X015545Y012668D01*
X015545Y012430D02*
X015851Y012430D01*
X015851Y012191D02*
X015519Y012191D01*
X015545Y011953D02*
X015851Y011953D01*
X015851Y011714D02*
X015545Y011714D01*
X015851Y011476D02*
X015087Y011476D01*
X014650Y011237D02*
X015851Y011237D01*
X015864Y010999D02*
X014650Y010999D01*
X014650Y010760D02*
X020685Y010760D01*
X020685Y010999D02*
X020576Y010999D01*
X020589Y011237D02*
X020685Y011237D01*
X020685Y011476D02*
X020589Y011476D01*
X020589Y011714D02*
X020685Y011714D01*
X020685Y011953D02*
X020589Y011953D01*
X020589Y012191D02*
X020685Y012191D01*
X020685Y012430D02*
X020589Y012430D01*
X020589Y012668D02*
X020685Y012668D01*
X020685Y012907D02*
X020589Y012907D01*
X020685Y013145D02*
X018340Y013145D01*
X018340Y013340D02*
X020589Y013340D01*
X020589Y015378D01*
X020577Y015439D01*
X020553Y015498D01*
X020518Y015550D01*
X020473Y015595D01*
X020421Y015630D01*
X020363Y015654D01*
X020301Y015666D01*
X018340Y015666D01*
X018340Y013340D01*
X018340Y013384D02*
X018100Y013384D01*
X018100Y013622D02*
X018340Y013622D01*
X018340Y013861D02*
X018100Y013861D01*
X018100Y014099D02*
X018340Y014099D01*
X018340Y014338D02*
X018100Y014338D01*
X018100Y014576D02*
X018340Y014576D01*
X018340Y014815D02*
X018100Y014815D01*
X018100Y015053D02*
X018340Y015053D01*
X018340Y015292D02*
X018100Y015292D01*
X018100Y015530D02*
X018340Y015530D01*
X016657Y017039D02*
X016401Y016783D01*
X016039Y016783D01*
X015783Y017039D01*
X015783Y017401D01*
X016039Y017657D01*
X016401Y017657D01*
X016657Y017401D01*
X016657Y017039D01*
X016580Y016961D02*
X020685Y016961D01*
X020685Y016723D02*
X013817Y016723D01*
X013817Y016720D02*
X013220Y016720D01*
X013220Y016720D01*
X013817Y016720D01*
X013770Y016484D02*
X020685Y016484D01*
X020685Y016246D02*
X013583Y016246D01*
X013580Y016007D02*
X020685Y016007D01*
X020685Y015769D02*
X013677Y015769D01*
X013636Y015530D02*
X015909Y015530D01*
X015851Y015292D02*
X013380Y015292D01*
X013534Y015053D02*
X014363Y015053D01*
X014198Y014815D02*
X013734Y014815D01*
X013972Y014576D02*
X014195Y014576D01*
X014940Y014576D02*
X014940Y014576D01*
X014940Y014815D02*
X014940Y014815D01*
X014940Y015053D02*
X014940Y015053D01*
X015517Y015053D02*
X015851Y015053D01*
X015851Y014815D02*
X015682Y014815D01*
X015685Y014576D02*
X015851Y014576D01*
X015851Y014338D02*
X015685Y014338D01*
X015565Y014099D02*
X015851Y014099D01*
X015851Y013861D02*
X015545Y013861D01*
X015622Y013622D02*
X015851Y013622D01*
X015851Y013384D02*
X015685Y013384D01*
X014940Y013384D02*
X014940Y013384D01*
X014940Y013145D02*
X014940Y013145D01*
X014195Y013145D02*
X013389Y013145D01*
X013051Y013145D02*
X009077Y013145D01*
X009020Y012907D02*
X012802Y012907D01*
X012763Y012668D02*
X009020Y012668D01*
X009020Y012430D02*
X012864Y012430D01*
X012821Y011953D02*
X009020Y011953D01*
X009020Y012191D02*
X013290Y012191D01*
X013677Y011714D02*
X013790Y011714D01*
X013790Y011476D02*
X013614Y011476D01*
X013790Y011237D02*
X009078Y011237D01*
X009020Y011476D02*
X012826Y011476D01*
X012763Y011714D02*
X009020Y011714D01*
X008720Y011220D02*
X008720Y013220D01*
X009040Y013384D02*
X012910Y013384D01*
X012766Y013622D02*
X007674Y013622D01*
X007657Y013861D02*
X012783Y013861D01*
X012952Y014099D02*
X007488Y014099D01*
X007680Y014338D02*
X012956Y014338D01*
X012785Y014576D02*
X007801Y014576D01*
X007817Y014720D02*
X007220Y014720D01*
X007817Y014720D01*
X007810Y014815D02*
X012764Y014815D01*
X012906Y015053D02*
X007716Y015053D01*
X007394Y015292D02*
X013060Y015292D01*
X012804Y015530D02*
X007636Y015530D01*
X007677Y015769D02*
X012763Y015769D01*
X012860Y016007D02*
X007580Y016007D01*
X007479Y016332D02*
X007311Y016263D01*
X007129Y016263D01*
X006961Y016332D01*
X006832Y016461D01*
X006763Y016629D01*
X006763Y016811D01*
X006832Y016979D01*
X006961Y017108D01*
X007129Y017177D01*
X007311Y017177D01*
X007479Y017108D01*
X007608Y016979D01*
X007677Y016811D01*
X007677Y016629D01*
X007608Y016461D01*
X007479Y016332D01*
X007617Y016484D02*
X012670Y016484D01*
X012623Y016720D02*
X013220Y016720D01*
X013220Y016720D01*
X012623Y016720D01*
X012623Y016723D02*
X007677Y016723D01*
X007615Y016961D02*
X012673Y016961D01*
X012864Y017200D02*
X006624Y017200D01*
X006825Y016961D02*
X006385Y016961D01*
X006147Y016723D02*
X006763Y016723D01*
X006823Y016484D02*
X005908Y016484D01*
X005670Y016246D02*
X012857Y016246D01*
X013767Y016961D02*
X014860Y016961D01*
X014783Y017039D02*
X015039Y016783D01*
X015401Y016783D01*
X015657Y017039D01*
X015657Y017401D01*
X015401Y017657D01*
X015039Y017657D01*
X014783Y017401D01*
X014783Y017039D01*
X014783Y017200D02*
X013576Y017200D01*
X013585Y017438D02*
X014819Y017438D01*
X014906Y017915D02*
X013634Y017915D01*
X013677Y017677D02*
X020685Y017677D01*
X020685Y017915D02*
X016534Y017915D01*
X016657Y018154D02*
X020685Y018154D01*
X020685Y018392D02*
X016657Y018392D01*
X016428Y018631D02*
X020685Y018631D01*
X020685Y018869D02*
X020247Y018869D01*
X020207Y018839D02*
X020207Y018839D01*
X019844Y018735D02*
X019844Y018735D01*
X019469Y018770D02*
X019469Y018770D01*
X019271Y018869D02*
X016488Y018869D01*
X016657Y019108D02*
X018977Y019108D01*
X019132Y018938D02*
X019132Y018938D01*
X018828Y019346D02*
X016657Y019346D01*
X016474Y019585D02*
X018742Y019585D01*
X018742Y019823D02*
X016442Y019823D01*
X016657Y020062D02*
X018787Y020062D01*
X018878Y020296D02*
X018878Y020296D01*
X018881Y020300D02*
X016657Y020300D01*
X016520Y020539D02*
X019099Y020539D01*
X020681Y019346D02*
X020685Y019346D01*
X020685Y019108D02*
X020533Y019108D01*
X020507Y019066D02*
X020507Y019066D01*
X020507Y019066D01*
X020685Y017438D02*
X016621Y017438D01*
X016657Y017200D02*
X020685Y017200D01*
X020685Y015530D02*
X020531Y015530D01*
X020589Y015292D02*
X020685Y015292D01*
X020685Y015053D02*
X020589Y015053D01*
X020589Y014815D02*
X020685Y014815D01*
X020685Y014576D02*
X020589Y014576D01*
X020589Y014338D02*
X020685Y014338D01*
X020685Y014099D02*
X020589Y014099D01*
X020589Y013861D02*
X020685Y013861D01*
X020685Y013622D02*
X020589Y013622D01*
X020589Y013384D02*
X020685Y013384D01*
X020685Y010522D02*
X014650Y010522D01*
X013790Y010522D02*
X013633Y010522D01*
X013677Y010760D02*
X013790Y010760D01*
X013790Y010999D02*
X013588Y010999D01*
X012852Y010999D02*
X009005Y010999D01*
X008578Y010760D02*
X012763Y010760D01*
X012807Y010522D02*
X008525Y010522D01*
X008220Y010720D02*
X008220Y012720D01*
X007910Y012907D02*
X007638Y012907D01*
X007608Y012979D02*
X007677Y012811D01*
X007677Y012629D01*
X007608Y012461D01*
X007479Y012332D01*
X007311Y012263D01*
X007129Y012263D01*
X006961Y012332D01*
X006832Y012461D01*
X006763Y012629D01*
X006763Y012811D01*
X006832Y012979D01*
X006961Y013108D01*
X007129Y013177D01*
X007311Y013177D01*
X007479Y013108D01*
X007608Y012979D01*
X007389Y013145D02*
X008363Y013145D01*
X008400Y013384D02*
X007530Y013384D01*
X007051Y013145D02*
X006407Y013145D01*
X006365Y012907D02*
X006802Y012907D01*
X006763Y012668D02*
X006082Y012668D01*
X005858Y012668D02*
X005196Y012668D01*
X005270Y012430D02*
X005499Y012430D01*
X005401Y012191D02*
X005270Y012191D01*
X005270Y011953D02*
X005409Y011953D01*
X005534Y011714D02*
X005270Y011714D01*
X005270Y011476D02*
X005745Y011476D01*
X005555Y011237D02*
X005270Y011237D01*
X005491Y010999D02*
X005536Y010999D01*
X004970Y011095D02*
X005970Y010095D01*
X004881Y010760D02*
X004715Y010760D01*
X004970Y011095D02*
X004970Y012470D01*
X004220Y013220D01*
X004220Y014720D01*
X004970Y015470D01*
X004970Y015970D01*
X006720Y017720D01*
X007220Y017720D01*
X007585Y017438D02*
X012855Y017438D01*
X012763Y017677D02*
X007677Y017677D01*
X007634Y017915D02*
X012521Y017915D01*
X012362Y018154D02*
X007368Y018154D01*
X007311Y018263D02*
X007479Y018332D01*
X007608Y018461D01*
X007677Y018629D01*
X007677Y018811D01*
X007608Y018979D01*
X007479Y019108D01*
X007311Y019177D01*
X007129Y019177D01*
X006961Y019108D01*
X006832Y018979D01*
X006763Y018811D01*
X006763Y018629D01*
X006832Y018461D01*
X006961Y018332D01*
X007129Y018263D01*
X007311Y018263D01*
X007539Y018392D02*
X012404Y018392D01*
X012720Y018220D02*
X014220Y018220D01*
X014720Y018720D01*
X015720Y018720D01*
X016220Y019220D01*
X015783Y019346D02*
X015657Y019346D01*
X015657Y019108D02*
X015683Y019108D01*
X015220Y019220D02*
X012720Y019220D01*
X012385Y019346D02*
X007493Y019346D01*
X007479Y019332D02*
X007608Y019461D01*
X007677Y019629D01*
X007677Y019811D01*
X007608Y019979D01*
X007479Y020108D01*
X007311Y020177D01*
X007129Y020177D01*
X006961Y020108D01*
X006832Y019979D01*
X006763Y019811D01*
X006763Y019629D01*
X006832Y019461D01*
X006961Y019332D01*
X007129Y019263D01*
X007311Y019263D01*
X007479Y019332D01*
X007479Y019108D02*
X012379Y019108D01*
X012632Y018869D02*
X007653Y018869D01*
X007677Y018631D02*
X012763Y018631D01*
X012781Y019585D02*
X007659Y019585D01*
X007672Y019823D02*
X012768Y019823D01*
X012915Y020062D02*
X007525Y020062D01*
X007398Y020300D02*
X013042Y020300D01*
X012801Y020539D02*
X007639Y020539D01*
X007042Y020300D02*
X001440Y020300D01*
X001440Y020062D02*
X006915Y020062D01*
X006768Y019823D02*
X001440Y019823D01*
X001440Y019585D02*
X006781Y019585D01*
X006947Y019346D02*
X001440Y019346D01*
X001440Y019108D02*
X006961Y019108D01*
X006787Y018869D02*
X001440Y018869D01*
X001440Y018631D02*
X006763Y018631D01*
X006901Y018392D02*
X001440Y018392D01*
X001440Y018154D02*
X007072Y018154D01*
X006491Y017915D02*
X001440Y017915D01*
X001440Y017677D02*
X006252Y017677D01*
X006014Y017438D02*
X001440Y017438D01*
X001440Y017200D02*
X002154Y017200D01*
X002196Y017205D02*
X002109Y017193D01*
X002023Y017171D01*
X001942Y017137D01*
X001866Y017093D01*
X001796Y017039D01*
X001733Y016977D01*
X001680Y016907D01*
X001636Y016831D01*
X001602Y016749D01*
X001579Y016664D01*
X001568Y016577D01*
X001568Y016180D01*
X002240Y016180D01*
X002240Y017205D01*
X002196Y017205D01*
X002240Y017200D02*
X002240Y017200D01*
X002326Y017200D02*
X005775Y017200D01*
X005537Y016961D02*
X004525Y016961D01*
X004698Y016723D02*
X005298Y016723D01*
X005060Y016484D02*
X004732Y016484D01*
X004732Y016246D02*
X004821Y016246D01*
X005431Y016007D02*
X005667Y016007D01*
X005689Y016018D02*
X005689Y016018D01*
X005352Y015850D02*
X005352Y015850D01*
X005278Y015769D02*
X005270Y015769D01*
X006226Y016007D02*
X006860Y016007D01*
X006763Y015769D02*
X006667Y015769D01*
X006427Y015950D02*
X006427Y015950D01*
X007220Y014720D02*
X007220Y014720D01*
X006760Y014338D02*
X006723Y014338D01*
X006728Y014341D02*
X006728Y014341D01*
X006728Y014341D01*
X006952Y014099D02*
X006374Y014099D01*
X006427Y014114D02*
X006427Y014114D01*
X006065Y014011D02*
X006065Y014011D01*
X005583Y014099D02*
X005424Y014099D01*
X005554Y013861D02*
X006783Y013861D01*
X006766Y013622D02*
X005565Y013622D01*
X005640Y013384D02*
X005467Y013384D01*
X005533Y013145D02*
X005104Y013145D01*
X004876Y013145D02*
X004719Y013145D01*
X004958Y012907D02*
X005575Y012907D01*
X006300Y013384D02*
X006910Y013384D01*
X007677Y012668D02*
X007862Y012668D01*
X007920Y012430D02*
X007576Y012430D01*
X007920Y012191D02*
X006539Y012191D01*
X006531Y011953D02*
X006821Y011953D01*
X006763Y011714D02*
X006406Y011714D01*
X006441Y012430D02*
X006864Y012430D01*
X007619Y011953D02*
X007920Y011953D01*
X007920Y011714D02*
X007677Y011714D01*
X007614Y011476D02*
X007920Y011476D01*
X004670Y011953D02*
X004613Y011953D01*
X002240Y011953D02*
X002240Y011953D01*
X002240Y012191D02*
X002240Y012191D01*
X001897Y012191D02*
X001440Y012191D01*
X001440Y011953D02*
X001660Y011953D01*
X001575Y011714D02*
X001440Y011714D01*
X001440Y011476D02*
X001568Y011476D01*
X001568Y011237D02*
X001440Y011237D01*
X001440Y010999D02*
X001568Y010999D01*
X001583Y010760D02*
X001440Y010760D01*
X001440Y010522D02*
X001689Y010522D01*
X002240Y010522D02*
X002240Y010522D01*
X002240Y010760D02*
X002240Y010760D01*
X002240Y010999D02*
X002240Y010999D01*
X002240Y011237D02*
X002240Y011237D01*
X002240Y011476D02*
X002240Y011476D01*
X002240Y011714D02*
X002240Y011714D01*
X004520Y014099D02*
X004556Y014099D01*
X004520Y014338D02*
X005239Y014338D01*
X005098Y014492D02*
X005098Y014492D01*
X005066Y014576D02*
X004520Y014576D01*
X004739Y014815D02*
X004973Y014815D01*
X003668Y016246D02*
X002912Y016246D01*
X002912Y016484D02*
X003668Y016484D01*
X003702Y016723D02*
X002885Y016723D01*
X002759Y016961D02*
X003875Y016961D01*
X002240Y016961D02*
X002240Y016961D01*
X002240Y016723D02*
X002240Y016723D01*
X002240Y016484D02*
X002240Y016484D01*
X002240Y016246D02*
X002240Y016246D01*
X002240Y016180D02*
X002240Y015155D01*
X002240Y016180D01*
X002240Y016180D01*
X002240Y016007D02*
X002240Y016007D01*
X002240Y015769D02*
X002240Y015769D01*
X002240Y015530D02*
X002240Y015530D01*
X002240Y015292D02*
X002240Y015292D01*
X001834Y015292D02*
X001440Y015292D01*
X001440Y015530D02*
X001635Y015530D01*
X001569Y015769D02*
X001440Y015769D01*
X001440Y016007D02*
X001568Y016007D01*
X001568Y016246D02*
X001440Y016246D01*
X001440Y016484D02*
X001568Y016484D01*
X001595Y016723D02*
X001440Y016723D01*
X001440Y016961D02*
X001721Y016961D01*
X001440Y020539D02*
X006801Y020539D01*
X013398Y020300D02*
X014643Y020300D01*
X014643Y020062D02*
X013525Y020062D01*
X013672Y019823D02*
X014674Y019823D01*
X014966Y019585D02*
X013659Y019585D01*
X013639Y020539D02*
X014648Y020539D01*
X015474Y019585D02*
X015966Y019585D01*
X015998Y019823D02*
X015766Y019823D01*
X015792Y020539D02*
X015920Y020539D01*
X015783Y018392D02*
X015657Y018392D01*
X015657Y018154D02*
X015783Y018154D01*
X015906Y017915D02*
X015534Y017915D01*
X015621Y017438D02*
X015819Y017438D01*
X015783Y017200D02*
X015657Y017200D01*
X015580Y016961D02*
X015860Y016961D01*
X014783Y018154D02*
X014578Y018154D01*
X013710Y013622D02*
X013674Y013622D01*
X013530Y013384D02*
X014195Y013384D01*
X013798Y012907D02*
X013638Y012907D01*
X016949Y009091D02*
X017806Y009091D01*
X017806Y009100D02*
X017806Y008440D01*
X017818Y008379D01*
X017842Y008320D01*
X017877Y008268D01*
X017922Y008223D01*
X017974Y008188D01*
X018032Y008164D01*
X018094Y008152D01*
X018557Y008152D01*
X018557Y009100D01*
X017806Y009100D01*
X017806Y008852D02*
X017131Y008852D01*
X017141Y008614D02*
X017806Y008614D01*
X017819Y008375D02*
X016983Y008375D01*
X018557Y008375D02*
X018797Y008375D01*
X018797Y008152D02*
X019259Y008152D01*
X019321Y008164D01*
X019379Y008188D01*
X019432Y008223D01*
X019476Y008268D01*
X019511Y008320D01*
X019536Y008379D01*
X019548Y008440D01*
X019548Y009100D01*
X018797Y009100D01*
X018797Y008152D01*
X018797Y008614D02*
X018557Y008614D01*
X018557Y008852D02*
X018797Y008852D01*
X018797Y009091D02*
X018557Y009091D01*
X018797Y009329D02*
X020685Y009329D01*
X020685Y009091D02*
X019548Y009091D01*
X019548Y008852D02*
X020685Y008852D01*
X020685Y008614D02*
X019548Y008614D01*
X019534Y008375D02*
X020685Y008375D01*
X020685Y009568D02*
X019548Y009568D01*
X019548Y009806D02*
X020685Y009806D01*
X020685Y010045D02*
X019539Y010045D01*
X019285Y010283D02*
X020685Y010283D01*
D23*
X016720Y008720D02*
X016263Y008720D01*
X015763Y009220D01*
X014220Y011720D02*
X014220Y003720D01*
X015039Y003720D01*
X014720Y003720D01*
X014220Y003720D02*
X014220Y002220D01*
X013720Y001720D01*
X012677Y001720D01*
X011677Y002720D01*
X008763Y002720D02*
X007763Y001720D01*
X005220Y001720D01*
X004720Y002220D01*
X004220Y002220D01*
X014220Y011720D02*
X014380Y011880D01*
X014940Y011880D01*
X014940Y012550D02*
X014050Y012550D01*
X013720Y012220D01*
X014050Y013890D02*
X013220Y014720D01*
X014050Y013890D02*
X014940Y013890D01*
D24*
X013720Y012220D03*
X016720Y008720D03*
X008720Y011220D03*
X008220Y010720D03*
X008220Y012720D03*
X008720Y013220D03*
X012720Y018220D03*
X012720Y019220D03*
M02*
